<svg version="1.1" xmlns="http://www.w3.org/2000/svg" width="1000.0" height="1000.0" viewBox="-500.0 -500.0 1000.0 1000.0"><path fill="none" stroke="#000000" d="M181.870,-475.000 L91.000,-384.130"/><path fill="none" stroke="#000000" d="M91.000,-360.086 L205.914,-475.000"/><path fill="none" stroke="#000000" d="M229.958,-475.000 L91.000,-336.042"/><path fill="none" stroke="#000000" d="M91.000,-311.997 L254.003,-475.000"/><path fill="none" stroke="#000000" d="M278.047,-475.000 L91.000,-287.953"/><path fill="none" stroke="#000000" d="M91.000,-263.909 L302.091,-475.000"/><path fill="none" stroke="#000000" d="M326.135,-475.000 L91.000,-239.865"/><path fill="none" stroke="#000000" d="M92.180,-217.000 L349.000,-473.821"/><path fill="none" stroke="#000000" d="M349.000,-449.776 L116.224,-217.000"/><path fill="none" stroke="#000000" d="M140.268,-217.000 L349.000,-425.732"/><path fill="none" stroke="#000000" d="M349.000,-401.688 L164.312,-217.000"/><path fill="none" stroke="#000000" d="M188.357,-217.000 L349.000,-377.644"/><path fill="none" stroke="#000000" d="M349.000,-353.599 L212.401,-217.000"/><path fill="none" stroke="#000000" d="M236.445,-217.000 L349.000,-329.555"/><path fill="none" stroke="#000000" d="M349.000,-305.511 L260.489,-217.000"/><path fill="none" stroke="#000000" d="M284.533,-217.000 L349.000,-281.467"/><path fill="none" stroke="#000000" d="M349.000,-257.422 L308.578,-217.000"/><path fill="none" stroke="#000000" d="M332.622,-217.000 L349.000,-233.378"/><path fill="none" stroke="#000000" d="M338.543,-192.000 L91.000,55.543"/><path fill="none" stroke="#000000" d="M98.964,66.000 L349.000,-184.036"/><path fill="none" stroke="#000000" d="M349.000,-165.616 L117.384,66.000"/><path fill="none" stroke="#000000" d="M135.805,66.000 L349.000,-147.195"/><path fill="none" stroke="#000000" d="M349.000,-128.775 L154.225,66.000"/><path fill="none" stroke="#000000" d="M172.646,66.000 L349.000,-110.355"/><path fill="none" stroke="#000000" d="M349.000,-91.934 L191.066,66.000"/><path fill="none" stroke="#000000" d="M209.486,66.000 L349.000,-73.514"/><path fill="none" stroke="#000000" d="M349.000,-55.093 L227.907,66.000"/><path fill="none" stroke="#000000" d="M246.327,66.000 L349.000,-36.673"/><path fill="none" stroke="#000000" d="M349.000,-18.252 L264.748,65.999"/><path fill="none" stroke="#000000" d="M283.168,66.000 L349.000,0.168"/><path fill="none" stroke="#000000" d="M349.000,18.588 L301.589,66.000"/><path fill="none" stroke="#000000" d="M320.009,66.000 L349.000,37.009"/><path fill="none" stroke="#000000" d="M349.000,55.429 L338.429,66.000"/><path fill="none" stroke="#000000" d="M337.834,91.000 L91.000,337.835"/><path fill="none" stroke="#000000" d="M99.657,349.000 L349.000,99.657"/><path fill="none" stroke="#000000" d="M349.000,119.479 L119.479,349.000"/><path fill="none" stroke="#000000" d="M139.301,349.000 L349.000,139.301"/><path fill="none" stroke="#000000" d="M349.000,159.123 L159.123,349.000"/><path fill="none" stroke="#000000" d="M178.946,349.000 L349.000,178.946"/><path fill="none" stroke="#000000" d="M349.000,198.768 L198.768,349.000"/><path fill="none" stroke="#000000" d="M218.590,349.000 L349.000,218.590"/><path fill="none" stroke="#000000" d="M349.000,238.413 L238.412,349.000"/><path fill="none" stroke="#000000" d="M258.235,349.000 L349.000,258.235"/><path fill="none" stroke="#000000" d="M349.000,278.057 L278.057,349.000"/><path fill="none" stroke="#000000" d="M297.879,349.000 L349.000,297.879"/><path fill="none" stroke="#000000" d="M349.000,317.702 L317.701,349.000"/><path fill="none" stroke="#000000" d="M337.524,349.000 L349.000,337.524"/><path fill="none" stroke="#000000" d="M318.012,91.000 L91.000,318.012"/><path fill="none" stroke="#000000" d="M91.000,298.190 L298.190,91.000"/><path fill="none" stroke="#000000" d="M278.367,91.000 L91.000,278.368"/><path fill="none" stroke="#000000" d="M91.000,258.546 L258.545,91.000"/><path fill="none" stroke="#000000" d="M238.723,91.000 L91.000,238.723"/><path fill="none" stroke="#000000" d="M91.000,218.901 L218.901,91.000"/><path fill="none" stroke="#000000" d="M199.078,91.000 L91.000,199.079"/><path fill="none" stroke="#000000" d="M91.000,179.256 L179.256,91.000"/><path fill="none" stroke="#000000" d="M159.434,91.000 L91.000,159.434"/><path fill="none" stroke="#000000" d="M91.000,139.612 L139.612,91.000"/><path fill="none" stroke="#000000" d="M119.789,91.000 L91.000,119.789"/><path fill="none" stroke="#000000" d="M91.000,99.968 L99.967,91.000"/><path fill="none" stroke="#000000" d="M66.000,101.602 L-181.398,349.000"/><path fill="none" stroke="#000000" d="M-227.034,349.000 L-217.000,338.966"/><path fill="none" stroke="#000000" d="M-217.000,323.398 L-242.601,349.000"/><path fill="none" stroke="#000000" d="M-258.169,349.000 L-217.000,307.831"/><path fill="none" stroke="#000000" d="M-217.000,292.264 L-273.736,349.000"/><path fill="none" stroke="#000000" d="M-289.304,349.000 L-217.000,276.696"/><path fill="none" stroke="#000000" d="M-217.000,261.129 L-304.871,349.000"/><path fill="none" stroke="#000000" d="M-320.438,349.000 L-217.000,245.561"/><path fill="none" stroke="#000000" d="M-217.000,229.994 L-336.006,349.000"/><path fill="none" stroke="#000000" d="M-351.573,349.000 L-217.000,214.427"/><path fill="none" stroke="#000000" d="M-217.000,198.859 L-367.141,349.000"/><path fill="none" stroke="#000000" d="M-382.708,349.000 L-217.000,183.292"/><path fill="none" stroke="#000000" d="M-217.000,167.724 L-398.276,349.000"/><path fill="none" stroke="#000000" d="M-413.843,349.000 L-217.000,152.157"/><path fill="none" stroke="#000000" d="M-217.000,136.589 L-429.411,349.000"/><path fill="none" stroke="#000000" d="M-444.978,349.000 L-217.000,121.022"/><path fill="none" stroke="#000000" d="M-192.000,161.298 L-121.702,91.000"/><path fill="none" stroke="#000000" d="M-101.871,91.000 L-192.000,181.129"/><path fill="none" stroke="#000000" d="M-192.000,200.959 L-82.041,91.000"/><path fill="none" stroke="#000000" d="M-62.211,91.000 L-192.000,220.789"/><path fill="none" stroke="#000000" d="M-192.000,240.620 L-42.380,91.000"/><path fill="none" stroke="#000000" d="M-22.550,91.000 L-192.000,260.450"/><path fill="none" stroke="#000000" d="M-192.000,280.281 L-2.719,91.000"/><path fill="none" stroke="#000000" d="M17.111,91.000 L-192.000,300.111"/><path fill="none" stroke="#000000" d="M-192.000,319.941 L36.941,91.000"/><path fill="none" stroke="#000000" d="M56.772,91.000 L-192.000,339.772"/><path fill="none" stroke="#000000" d="M-161.568,349.000 L66.000,121.432"/><path fill="none" stroke="#000000" d="M66.000,141.263 L-141.737,349.000"/><path fill="none" stroke="#000000" d="M-121.907,349.000 L66.000,161.093"/><path fill="none" stroke="#000000" d="M66.000,180.923 L-102.077,349.000"/><path fill="none" stroke="#000000" d="M-82.246,349.000 L66.000,200.754"/><path fill="none" stroke="#000000" d="M66.000,220.584 L-62.416,349.000"/><path fill="none" stroke="#000000" d="M-42.586,349.000 L66.000,240.415"/><path fill="none" stroke="#000000" d="M66.000,260.245 L-22.755,349.000"/><path fill="none" stroke="#000000" d="M-2.925,349.000 L66.000,280.075"/><path fill="none" stroke="#000000" d="M66.000,299.906 L16.905,349.000"/><path fill="none" stroke="#000000" d="M36.736,349.000 L66.000,319.736"/><path fill="none" stroke="#000000" d="M66.000,339.566 L56.566,349.000"/><path fill="none" stroke="#000000" d="M-192.000,141.468 L-141.532,91.000"/><path fill="none" stroke="#000000" d="M-161.362,91.000 L-192.000,121.638"/><path fill="none" stroke="#000000" d="M-192.000,101.807 L-181.193,91.000"/><path fill="none" stroke="#000000" d="M-185.696,66.000 L66.000,-185.696"/><path fill="none" stroke="#000000" d="M46.785,-192.000 L-192.000,46.785"/><path fill="none" stroke="#000000" d="M-192.000,21.266 L21.266,-192.000"/><path fill="none" stroke="#000000" d="M17.423,-217.000 L66.000,-265.577"/><path fill="none" stroke="#000000" d="M66.000,-242.916 L40.084,-217.000"/><path fill="none" stroke="#000000" d="M62.744,-217.000 L66.000,-220.256"/><path fill="none" stroke="#000000" d="M99.078,-192.000 L91.000,-183.921"/><path fill="none" stroke="#000000" d="M91.000,-165.501 L117.499,-192.000"/><path fill="none" stroke="#000000" d="M135.919,-192.000 L91.000,-147.081"/><path fill="none" stroke="#000000" d="M91.000,-128.660 L154.340,-192.000"/><path fill="none" stroke="#000000" d="M172.760,-192.000 L91.000,-110.240"/><path fill="none" stroke="#000000" d="M91.000,-91.820 L191.180,-192.000"/><path fill="none" stroke="#000000" d="M209.601,-192.000 L91.000,-73.399"/><path fill="none" stroke="#000000" d="M91.000,-54.979 L228.021,-192.000"/><path fill="none" stroke="#000000" d="M246.442,-192.000 L91.000,-36.558"/><path fill="none" stroke="#000000" d="M91.000,-18.138 L264.862,-192.000"/><path fill="none" stroke="#000000" d="M283.282,-192.000 L91.000,0.282"/><path fill="none" stroke="#000000" d="M91.000,18.703 L301.703,-192.000"/><path fill="none" stroke="#000000" d="M320.123,-192.000 L91.000,37.123"/><path fill="none" stroke="#000000" d="M66.000,43.975 L43.975,66.000"/><path fill="none" stroke="#000000" d="M18.456,66.000 L66.000,18.456"/><path fill="none" stroke="#000000" d="M66.000,-7.063 L-7.063,66.000"/><path fill="none" stroke="#000000" d="M-32.582,66.000 L66.000,-32.582"/><path fill="none" stroke="#000000" d="M66.000,-58.101 L-58.101,66.000"/><path fill="none" stroke="#000000" d="M-83.620,66.000 L66.000,-83.620"/><path fill="none" stroke="#000000" d="M66.000,-109.139 L-109.139,66.000"/><path fill="none" stroke="#000000" d="M-134.658,66.000 L66.000,-134.658"/><path fill="none" stroke="#000000" d="M66.000,-160.177 L-160.177,66.000"/><path fill="none" stroke="#000000" d="M-217.000,61.367 L-221.633,66.000"/><path fill="none" stroke="#000000" d="M-218.113,91.000 L-475.000,347.887"/><path fill="none" stroke="#000000" d="M-460.546,349.000 L-217.000,105.454"/><path fill="none" stroke="#000000" d="M-233.680,91.000 L-475.000,332.320"/><path fill="none" stroke="#000000" d="M-475.000,316.752 L-249.248,91.000"/><path fill="none" stroke="#000000" d="M-264.815,91.000 L-475.000,301.185"/><path fill="none" stroke="#000000" d="M-475.000,285.617 L-280.383,91.000"/><path fill="none" stroke="#000000" d="M-295.950,91.000 L-475.000,270.050"/><path fill="none" stroke="#000000" d="M-475.000,254.482 L-311.518,91.000"/><path fill="none" stroke="#000000" d="M-327.085,91.000 L-475.000,238.915"/><path fill="none" stroke="#000000" d="M-475.000,223.348 L-342.652,91.000"/><path fill="none" stroke="#000000" d="M-358.220,91.000 L-475.000,207.780"/><path fill="none" stroke="#000000" d="M-475.000,192.213 L-373.787,91.000"/><path fill="none" stroke="#000000" d="M-389.355,91.000 L-475.000,176.645"/><path fill="none" stroke="#000000" d="M-475.000,161.078 L-404.922,91.000"/><path fill="none" stroke="#000000" d="M-420.490,91.000 L-475.000,145.510"/><path fill="none" stroke="#000000" d="M-475.000,129.943 L-436.057,91.000"/><path fill="none" stroke="#000000" d="M-451.624,91.000 L-475.000,114.376"/><path fill="none" stroke="#000000" d="M-475.000,98.808 L-467.192,91.000"/><path fill="none" stroke="#000000" d="M-475.000,63.967 L-219.034,-192.000"/><path fill="none" stroke="#000000" d="M-244.574,-192.000 L-475.000,38.427"/><path fill="none" stroke="#000000" d="M-475.000,12.886 L-270.113,-192.000"/><path fill="none" stroke="#000000" d="M-295.654,-192.000 L-475.000,-12.654"/><path fill="none" stroke="#000000" d="M-475.000,-38.194 L-321.194,-192.000"/><path fill="none" stroke="#000000" d="M-346.734,-192.000 L-475.000,-63.734"/><path fill="none" stroke="#000000" d="M-475.000,-89.274 L-372.274,-192.000"/><path fill="none" stroke="#000000" d="M-397.814,-192.000 L-475.000,-114.814"/><path fill="none" stroke="#000000" d="M-475.000,-140.354 L-423.354,-192.000"/><path fill="none" stroke="#000000" d="M-448.894,-192.000 L-475.000,-165.894"/><path fill="none" stroke="#000000" d="M-475.000,-191.434 L-474.434,-192.000"/><path fill="none" stroke="#000000" d="M-230.092,-217.000 L-217.000,-230.092"/><path fill="none" stroke="#000000" d="M-217.000,-245.704 L-245.704,-217.000"/><path fill="none" stroke="#000000" d="M-261.315,-217.000 L-217.000,-261.315"/><path fill="none" stroke="#000000" d="M-217.000,-276.927 L-276.927,-217.000"/><path fill="none" stroke="#000000" d="M-292.538,-217.000 L-217.000,-292.538"/><path fill="none" stroke="#000000" d="M-217.000,-308.149 L-308.149,-217.000"/><path fill="none" stroke="#000000" d="M-323.760,-217.000 L-217.000,-323.760"/><path fill="none" stroke="#000000" d="M-217.000,-339.372 L-339.372,-217.000"/><path fill="none" stroke="#000000" d="M-354.983,-217.000 L-217.000,-354.983"/><path fill="none" stroke="#000000" d="M-217.000,-370.594 L-370.594,-217.000"/><path fill="none" stroke="#000000" d="M-386.206,-217.000 L-217.000,-386.206"/><path fill="none" stroke="#000000" d="M-217.000,-401.817 L-401.817,-217.000"/><path fill="none" stroke="#000000" d="M-417.428,-217.000 L-217.000,-417.428"/><path fill="none" stroke="#000000" d="M-217.000,-433.040 L-433.040,-217.000"/><path fill="none" stroke="#000000" d="M-448.651,-217.000 L-217.000,-448.651"/><path fill="none" stroke="#000000" d="M-471.655,-475.000 L-475.000,-471.655"/><path fill="none" stroke="#000000" d="M-475.000,-456.043 L-456.043,-475.000"/><path fill="none" stroke="#000000" d="M-440.432,-475.000 L-475.000,-440.432"/><path fill="none" stroke="#000000" d="M-475.000,-424.821 L-424.821,-475.000"/><path fill="none" stroke="#000000" d="M-409.210,-475.000 L-475.000,-409.209"/><path fill="none" stroke="#000000" d="M-475.000,-393.598 L-393.598,-475.000"/><path fill="none" stroke="#000000" d="M-377.987,-475.000 L-475.000,-377.987"/><path fill="none" stroke="#000000" d="M-475.000,-362.376 L-362.376,-475.000"/><path fill="none" stroke="#000000" d="M-346.764,-475.000 L-475.000,-346.764"/><path fill="none" stroke="#000000" d="M-475.000,-331.153 L-331.153,-475.000"/><path fill="none" stroke="#000000" d="M-315.542,-475.000 L-475.000,-315.542"/><path fill="none" stroke="#000000" d="M-475.000,-299.930 L-299.930,-475.000"/><path fill="none" stroke="#000000" d="M-284.319,-475.000 L-475.000,-284.319"/><path fill="none" stroke="#000000" d="M-475.000,-268.708 L-268.708,-475.000"/><path fill="none" stroke="#000000" d="M-253.096,-475.000 L-475.000,-253.096"/><path fill="none" stroke="#000000" d="M-475.000,-237.485 L-237.485,-475.000"/><path fill="none" stroke="#000000" d="M-221.874,-475.000 L-475.000,-221.874"/><path fill="none" stroke="#000000" d="M-464.262,-217.000 L-217.000,-464.262"/><path fill="none" stroke="#000000" d="M-192.000,-460.788 L-177.788,-475.000"/><path fill="none" stroke="#000000" d="M-155.127,-475.000 L-192.000,-438.127"/><path fill="none" stroke="#000000" d="M-192.000,-415.467 L-132.466,-475.000"/><path fill="none" stroke="#000000" d="M-109.806,-475.000 L-192.000,-392.806"/><path fill="none" stroke="#000000" d="M-192.000,-370.145 L-87.146,-475.000"/><path fill="none" stroke="#000000" d="M-64.485,-475.000 L-192.000,-347.485"/><path fill="none" stroke="#000000" d="M-192.000,-324.824 L-41.824,-475.000"/><path fill="none" stroke="#000000" d="M-19.164,-475.000 L-192.000,-302.164"/><path fill="none" stroke="#000000" d="M-192.000,-279.503 L3.497,-475.000"/><path fill="none" stroke="#000000" d="M26.157,-475.000 L-192.000,-256.843"/><path fill="none" stroke="#000000" d="M-192.000,-234.182 L48.818,-475.000"/><path fill="none" stroke="#000000" d="M66.000,-469.522 L-186.522,-217.000"/><path fill="none" stroke="#000000" d="M-163.861,-217.000 L66.000,-446.861"/><path fill="none" stroke="#000000" d="M66.000,-424.201 L-141.201,-217.000"/><path fill="none" stroke="#000000" d="M-118.540,-217.000 L66.000,-401.540"/><path fill="none" stroke="#000000" d="M66.000,-378.879 L-95.879,-217.000"/><path fill="none" stroke="#000000" d="M-73.219,-217.000 L66.000,-356.219"/><path fill="none" stroke="#000000" d="M66.000,-333.559 L-50.558,-217.000"/><path fill="none" stroke="#000000" d="M-27.898,-217.000 L66.000,-310.898"/><path fill="none" stroke="#000000" d="M66.000,-288.237 L-5.237,-217.000"/><path fill="none" stroke="#000000" d="M-4.253,-192.000 L-192.000,-4.253"/><path fill="none" stroke="#000000" d="M-217.000,35.827 L-247.173,66.000"/><path fill="none" stroke="#000000" d="M-217.000,10.287 L-272.713,66.000"/><path fill="none" stroke="#000000" d="M-298.253,66.000 L-217.000,-15.253"/><path fill="none" stroke="#000000" d="M-217.000,-40.793 L-323.793,66.000"/><path fill="none" stroke="#000000" d="M-349.333,66.000 L-217.000,-66.333"/><path fill="none" stroke="#000000" d="M-217.000,-91.873 L-374.873,66.000"/><path fill="none" stroke="#000000" d="M-400.413,66.000 L-217.000,-117.413"/><path fill="none" stroke="#000000" d="M-217.000,-142.953 L-425.953,66.000"/><path fill="none" stroke="#000000" d="M-451.493,66.000 L-217.000,-168.493"/><path fill="none" stroke="#000000" d="M-192.000,-182.886 L-182.886,-192.000"/><path fill="none" stroke="#000000" d="M-157.367,-192.000 L-192.000,-157.367"/><path fill="none" stroke="#000000" d="M-192.000,-131.848 L-131.848,-192.000"/><path fill="none" stroke="#000000" d="M-106.329,-192.000 L-192.000,-106.329"/><path fill="none" stroke="#000000" d="M-192.000,-80.810 L-80.810,-192.000"/><path fill="none" stroke="#000000" d="M-55.291,-192.000 L-192.000,-55.291"/><path fill="none" stroke="#000000" d="M-192.000,-29.772 L-29.772,-192.000"/><path fill="none" stroke="#000000" d="M91.000,-408.174 L157.826,-475.000"/><path fill="none" stroke="#000000" d="M133.781,-475.000 L91.000,-432.218"/><path fill="none" stroke="#000000" d="M91.000,-456.263 L109.737,-475.000"/></svg>