<svg version="1.1" xmlns="http://www.w3.org/2000/svg" width="1000.0" height="1000.0" viewBox="-500.0 -500.0 1000.0 1000.0"><path fill="none" stroke="#000000" d="M-228.011,66.000 L-475.000,-180.989"/><path fill="none" stroke="#000000" d="M-475.000,-177.697 L-460.697,-192.000"/><path fill="none" stroke="#000000" d="M-467.594,-192.000 L-217.000,58.594"/><path fill="none" stroke="#000000" d="M-217.000,61.571 L-221.429,66.000"/><path fill="none" stroke="#000000" d="M-239.847,66.000 L-217.000,43.153"/><path fill="none" stroke="#000000" d="M-217.000,40.177 L-449.177,-192.000"/><path fill="none" stroke="#000000" d="M-442.280,-192.000 L-475.000,-159.280"/><path fill="none" stroke="#000000" d="M-475.000,-162.571 L-246.429,66.000"/><path fill="none" stroke="#000000" d="M-258.264,66.000 L-217.000,24.736"/><path fill="none" stroke="#000000" d="M-217.000,21.759 L-430.759,-192.000"/><path fill="none" stroke="#000000" d="M-423.863,-192.000 L-475.000,-140.863"/><path fill="none" stroke="#000000" d="M-475.000,-144.154 L-264.846,66.000"/><path fill="none" stroke="#000000" d="M-276.681,66.000 L-217.000,6.319"/><path fill="none" stroke="#000000" d="M-217.000,3.342 L-412.342,-192.000"/><path fill="none" stroke="#000000" d="M-405.445,-192.000 L-475.000,-122.445"/><path fill="none" stroke="#000000" d="M-475.000,-125.737 L-283.263,66.000"/><path fill="none" stroke="#000000" d="M-295.099,66.000 L-217.000,-12.099"/><path fill="none" stroke="#000000" d="M-217.000,-15.075 L-393.924,-192.000"/><path fill="none" stroke="#000000" d="M-387.028,-192.000 L-475.000,-104.028"/><path fill="none" stroke="#000000" d="M-475.000,-107.319 L-301.681,66.000"/><path fill="none" stroke="#000000" d="M-313.516,66.000 L-217.000,-30.516"/><path fill="none" stroke="#000000" d="M-217.000,-33.493 L-375.507,-192.000"/><path fill="none" stroke="#000000" d="M-368.611,-192.000 L-475.000,-85.611"/><path fill="none" stroke="#000000" d="M-475.000,-88.902 L-320.098,66.000"/><path fill="none" stroke="#000000" d="M-331.933,66.000 L-217.000,-48.933"/><path fill="none" stroke="#000000" d="M-217.000,-51.910 L-357.090,-192.000"/><path fill="none" stroke="#000000" d="M-350.193,-192.000 L-475.000,-67.193"/><path fill="none" stroke="#000000" d="M-475.000,-70.485 L-338.515,66.000"/><path fill="none" stroke="#000000" d="M-350.351,66.000 L-217.000,-67.351"/><path fill="none" stroke="#000000" d="M-217.000,-70.327 L-338.673,-192.000"/><path fill="none" stroke="#000000" d="M-331.776,-192.000 L-475.000,-48.776"/><path fill="none" stroke="#000000" d="M-475.000,-52.067 L-356.932,66.000"/><path fill="none" stroke="#000000" d="M-368.768,66.000 L-217.000,-85.768"/><path fill="none" stroke="#000000" d="M-217.000,-88.745 L-320.255,-192.000"/><path fill="none" stroke="#000000" d="M-313.359,-192.000 L-475.000,-30.359"/><path fill="none" stroke="#000000" d="M-475.000,-33.650 L-375.350,66.000"/><path fill="none" stroke="#000000" d="M-387.185,66.000 L-217.000,-104.185"/><path fill="none" stroke="#000000" d="M-217.000,-107.162 L-301.838,-192.000"/><path fill="none" stroke="#000000" d="M-294.941,-192.000 L-475.000,-11.941"/><path fill="none" stroke="#000000" d="M-475.000,-15.233 L-393.767,66.000"/><path fill="none" stroke="#000000" d="M-405.603,66.000 L-217.000,-122.603"/><path fill="none" stroke="#000000" d="M-217.000,-125.579 L-283.421,-192.000"/><path fill="none" stroke="#000000" d="M-276.524,-192.000 L-475.000,6.476"/><path fill="none" stroke="#000000" d="M-475.000,3.185 L-412.185,66.000"/><path fill="none" stroke="#000000" d="M-424.020,66.000 L-217.000,-141.020"/><path fill="none" stroke="#000000" d="M-217.000,-143.997 L-265.003,-192.000"/><path fill="none" stroke="#000000" d="M-258.107,-192.000 L-475.000,24.893"/><path fill="none" stroke="#000000" d="M-475.000,21.602 L-430.602,66.000"/><path fill="none" stroke="#000000" d="M-442.438,66.000 L-217.000,-159.437"/><path fill="none" stroke="#000000" d="M-217.000,-162.414 L-246.586,-192.000"/><path fill="none" stroke="#000000" d="M-239.689,-192.000 L-475.000,43.311"/><path fill="none" stroke="#000000" d="M-475.000,40.019 L-449.019,66.000"/><path fill="none" stroke="#000000" d="M-460.855,66.000 L-217.000,-177.855"/><path fill="none" stroke="#000000" d="M-217.000,-180.831 L-228.169,-192.000"/><path fill="none" stroke="#000000" d="M-221.272,-192.000 L-475.000,61.728"/><path fill="none" stroke="#000000" d="M-475.000,58.437 L-467.436,66.000"/><path fill="none" stroke="#000000" d="M-471.310,91.000 L-475.000,94.690"/><path fill="none" stroke="#000000" d="M-474.391,91.000 L-217.000,348.391"/><path fill="none" stroke="#000000" d="M-217.000,334.949 L-231.051,349.000"/><path fill="none" stroke="#000000" d="M-239.039,349.000 L-475.000,113.039"/><path fill="none" stroke="#000000" d="M-475.000,117.338 L-448.662,91.000"/><path fill="none" stroke="#000000" d="M-451.743,91.000 L-217.000,325.743"/><path fill="none" stroke="#000000" d="M-217.000,312.301 L-253.699,349.000"/><path fill="none" stroke="#000000" d="M-261.687,349.000 L-475.000,135.688"/><path fill="none" stroke="#000000" d="M-475.000,139.986 L-426.013,91.000"/><path fill="none" stroke="#000000" d="M-429.095,91.000 L-217.000,303.095"/><path fill="none" stroke="#000000" d="M-217.000,289.652 L-276.348,349.000"/><path fill="none" stroke="#000000" d="M-284.336,349.000 L-475.000,158.336"/><path fill="none" stroke="#000000" d="M-475.000,162.635 L-403.365,91.000"/><path fill="none" stroke="#000000" d="M-406.447,91.000 L-217.000,280.447"/><path fill="none" stroke="#000000" d="M-217.000,267.004 L-298.996,349.000"/><path fill="none" stroke="#000000" d="M-306.984,349.000 L-475.000,180.984"/><path fill="none" stroke="#000000" d="M-475.000,185.283 L-380.717,91.000"/><path fill="none" stroke="#000000" d="M-383.799,91.000 L-217.000,257.799"/><path fill="none" stroke="#000000" d="M-217.000,244.356 L-321.644,349.000"/><path fill="none" stroke="#000000" d="M-329.632,349.000 L-475.000,203.632"/><path fill="none" stroke="#000000" d="M-475.000,207.931 L-358.069,91.000"/><path fill="none" stroke="#000000" d="M-361.151,91.000 L-217.000,235.151"/><path fill="none" stroke="#000000" d="M-217.000,221.708 L-344.292,349.000"/><path fill="none" stroke="#000000" d="M-352.280,349.000 L-475.000,226.280"/><path fill="none" stroke="#000000" d="M-475.000,230.579 L-335.421,91.000"/><path fill="none" stroke="#000000" d="M-338.502,91.000 L-217.000,212.503"/><path fill="none" stroke="#000000" d="M-217.000,199.060 L-366.940,349.000"/><path fill="none" stroke="#000000" d="M-374.928,349.000 L-475.000,248.928"/><path fill="none" stroke="#000000" d="M-475.000,253.227 L-312.773,91.000"/><path fill="none" stroke="#000000" d="M-315.854,91.000 L-217.000,189.855"/><path fill="none" stroke="#000000" d="M-217.000,176.412 L-389.588,349.000"/><path fill="none" stroke="#000000" d="M-397.576,349.000 L-475.000,271.576"/><path fill="none" stroke="#000000" d="M-475.000,275.875 L-290.125,91.000"/><path fill="none" stroke="#000000" d="M-293.206,91.000 L-217.000,167.207"/><path fill="none" stroke="#000000" d="M-217.000,153.764 L-412.236,349.000"/><path fill="none" stroke="#000000" d="M-420.224,349.000 L-475.000,294.224"/><path fill="none" stroke="#000000" d="M-475.000,298.523 L-267.477,91.000"/><path fill="none" stroke="#000000" d="M-270.558,91.000 L-217.000,144.558"/><path fill="none" stroke="#000000" d="M-217.000,131.116 L-434.884,349.000"/><path fill="none" stroke="#000000" d="M-442.872,349.000 L-475.000,316.872"/><path fill="none" stroke="#000000" d="M-475.000,321.171 L-244.829,91.000"/><path fill="none" stroke="#000000" d="M-247.910,91.000 L-217.000,121.910"/><path fill="none" stroke="#000000" d="M-217.000,108.467 L-457.532,349.000"/><path fill="none" stroke="#000000" d="M-465.520,349.000 L-475.000,339.521"/><path fill="none" stroke="#000000" d="M-475.000,343.820 L-222.180,91.000"/><path fill="none" stroke="#000000" d="M-225.262,91.000 L-217.000,99.262"/><path fill="none" stroke="#000000" d="M-188.722,66.000 L66.000,-188.722"/><path fill="none" stroke="#000000" d="M53.691,-192.000 L-192.000,53.691"/><path fill="none" stroke="#000000" d="M-192.000,38.103 L38.103,-192.000"/><path fill="none" stroke="#000000" d="M22.515,-192.000 L-192.000,22.515"/><path fill="none" stroke="#000000" d="M-192.000,6.928 L6.928,-192.000"/><path fill="none" stroke="#000000" d="M-8.660,-192.000 L-192.000,-8.660"/><path fill="none" stroke="#000000" d="M-192.000,-24.248 L-24.248,-192.000"/><path fill="none" stroke="#000000" d="M-39.835,-192.000 L-192.000,-39.835"/><path fill="none" stroke="#000000" d="M-192.000,-55.423 L-55.423,-192.000"/><path fill="none" stroke="#000000" d="M-71.010,-192.000 L-192.000,-71.010"/><path fill="none" stroke="#000000" d="M-192.000,-86.598 L-86.598,-192.000"/><path fill="none" stroke="#000000" d="M-102.186,-192.000 L-192.000,-102.186"/><path fill="none" stroke="#000000" d="M-192.000,-117.773 L-117.773,-192.000"/><path fill="none" stroke="#000000" d="M-133.361,-192.000 L-192.000,-133.361"/><path fill="none" stroke="#000000" d="M-192.000,-148.949 L-148.948,-192.000"/><path fill="none" stroke="#000000" d="M-164.536,-192.000 L-192.000,-164.536"/><path fill="none" stroke="#000000" d="M-192.000,-180.124 L-180.124,-192.000"/><path fill="none" stroke="#000000" d="M-217.000,-229.127 L-229.127,-217.000"/><path fill="none" stroke="#000000" d="M-254.717,-217.000 L-217.000,-254.716"/><path fill="none" stroke="#000000" d="M-217.000,-280.306 L-280.306,-217.000"/><path fill="none" stroke="#000000" d="M-305.896,-217.000 L-217.000,-305.896"/><path fill="none" stroke="#000000" d="M-217.000,-331.486 L-331.486,-217.000"/><path fill="none" stroke="#000000" d="M-357.075,-217.000 L-217.000,-357.075"/><path fill="none" stroke="#000000" d="M-217.000,-382.665 L-382.665,-217.000"/><path fill="none" stroke="#000000" d="M-408.255,-217.000 L-217.000,-408.255"/><path fill="none" stroke="#000000" d="M-217.000,-433.844 L-433.844,-217.000"/><path fill="none" stroke="#000000" d="M-459.434,-217.000 L-217.000,-459.434"/><path fill="none" stroke="#000000" d="M-457.331,-475.000 L-475.000,-457.331"/><path fill="none" stroke="#000000" d="M-475.000,-431.741 L-431.741,-475.000"/><path fill="none" stroke="#000000" d="M-406.152,-475.000 L-475.000,-406.152"/><path fill="none" stroke="#000000" d="M-475.000,-380.562 L-380.562,-475.000"/><path fill="none" stroke="#000000" d="M-354.972,-475.000 L-475.000,-354.972"/><path fill="none" stroke="#000000" d="M-475.000,-329.383 L-329.383,-475.000"/><path fill="none" stroke="#000000" d="M-303.793,-475.000 L-475.000,-303.793"/><path fill="none" stroke="#000000" d="M-475.000,-278.203 L-278.203,-475.000"/><path fill="none" stroke="#000000" d="M-252.613,-475.000 L-475.000,-252.614"/><path fill="none" stroke="#000000" d="M-475.000,-227.024 L-227.024,-475.000"/><path fill="none" stroke="#000000" d="M-176.000,-459.000 L49.000,-459.000 L49.000,-234.000 L-176.000,-234.000 L-176.000,-459.000"/><path fill="none" stroke="#000000" d="M-160.000,-443.000 L-160.000,-250.000 L33.000,-250.000 L33.000,-443.000 L-160.000,-443.000"/><path fill="none" stroke="#000000" d="M-144.000,-427.000 L-144.000,-266.000 L17.000,-266.000 L17.000,-427.000 L-144.000,-427.000"/><path fill="none" stroke="#000000" d="M-128.000,-411.000 L-128.000,-282.000 L1.000,-282.000 L1.000,-411.000 L-128.000,-411.000"/><path fill="none" stroke="#000000" d="M-112.000,-395.000 L-112.000,-298.000 L-15.000,-298.000 L-15.000,-395.000 L-112.000,-395.000"/><path fill="none" stroke="#000000" d="M-96.000,-379.000 L-96.000,-314.000 L-31.000,-314.000 L-31.000,-379.000 L-96.000,-379.000"/><path fill="none" stroke="#000000" d="M-80.000,-363.000 L-47.000,-363.000 L-47.000,-330.000 L-80.000,-330.000 L-80.000,-363.000"/><path fill="none" stroke="#000000" d="M100.000,-466.000 L339.000,-466.000 L339.000,-227.000 L100.000,-227.000 L100.000,-466.000"/><path fill="none" stroke="#000000" d="M110.000,-456.000 L110.000,-237.000 L329.000,-237.000 L329.000,-456.000 L110.000,-456.000"/><path fill="none" stroke="#000000" d="M120.000,-446.000 L120.000,-247.000 L319.000,-247.000 L319.000,-446.000 L120.000,-446.000"/><path fill="none" stroke="#000000" d="M130.000,-436.000 L130.000,-257.000 L309.000,-257.000 L309.000,-436.000 L130.000,-436.000"/><path fill="none" stroke="#000000" d="M140.000,-426.000 L140.000,-267.000 L299.000,-267.000 L299.000,-426.000 L140.000,-426.000"/><path fill="none" stroke="#000000" d="M150.000,-416.000 L150.000,-277.000 L289.000,-277.000 L289.000,-416.000 L150.000,-416.000"/><path fill="none" stroke="#000000" d="M160.000,-406.000 L160.000,-287.000 L279.000,-287.000 L279.000,-406.000 L160.000,-406.000"/><path fill="none" stroke="#000000" d="M170.000,-396.000 L170.000,-297.000 L269.000,-297.000 L269.000,-396.000 L170.000,-396.000"/><path fill="none" stroke="#000000" d="M180.000,-386.000 L180.000,-307.000 L259.000,-307.000 L259.000,-386.000 L180.000,-386.000"/><path fill="none" stroke="#000000" d="M190.000,-376.000 L190.000,-317.000 L249.000,-317.000 L249.000,-376.000 L190.000,-376.000"/><path fill="none" stroke="#000000" d="M200.000,-366.000 L200.000,-327.000 L239.000,-327.000 L239.000,-366.000 L200.000,-366.000"/><path fill="none" stroke="#000000" d="M210.000,-356.000 L229.000,-356.000 L229.000,-337.000 L210.000,-337.000 L210.000,-356.000"/><path fill="none" stroke="#000000" d="M200.959,-192.000 L91.000,-82.041"/><path fill="none" stroke="#000000" d="M91.000,-62.211 L220.789,-192.000"/><path fill="none" stroke="#000000" d="M240.620,-192.000 L91.000,-42.380"/><path fill="none" stroke="#000000" d="M91.000,-22.550 L260.450,-192.000"/><path fill="none" stroke="#000000" d="M280.280,-192.000 L91.000,-2.719"/><path fill="none" stroke="#000000" d="M91.000,17.111 L300.111,-192.000"/><path fill="none" stroke="#000000" d="M319.941,-192.000 L91.000,36.941"/><path fill="none" stroke="#000000" d="M91.000,56.772 L339.772,-192.000"/><path fill="none" stroke="#000000" d="M349.000,-181.398 L101.602,66.000"/><path fill="none" stroke="#000000" d="M345.127,91.000 L91.000,345.128"/><path fill="none" stroke="#000000" d="M91.000,348.094 L91.906,349.000"/><path fill="none" stroke="#000000" d="M102.709,349.000 L349.000,102.709"/><path fill="none" stroke="#000000" d="M349.000,107.485 L332.514,91.000"/><path fill="none" stroke="#000000" d="M329.546,91.000 L91.000,329.546"/><path fill="none" stroke="#000000" d="M91.000,332.513 L107.487,349.000"/><path fill="none" stroke="#000000" d="M118.290,349.000 L349.000,118.291"/><path fill="none" stroke="#000000" d="M349.000,123.067 L316.932,91.000"/><path fill="none" stroke="#000000" d="M313.964,91.000 L91.000,313.965"/><path fill="none" stroke="#000000" d="M90.999,316.930 L123.069,349.000"/><path fill="none" stroke="#000000" d="M133.872,349.000 L349.000,133.872"/><path fill="none" stroke="#000000" d="M349.000,138.649 L301.351,91.000"/><path fill="none" stroke="#000000" d="M298.383,91.000 L91.000,298.383"/><path fill="none" stroke="#000000" d="M91.000,301.351 L138.650,349.000"/><path fill="none" stroke="#000000" d="M149.454,349.000 L349.000,149.454"/><path fill="none" stroke="#000000" d="M349.000,154.231 L285.769,91.000"/><path fill="none" stroke="#000000" d="M282.801,91.000 L91.000,282.801"/><path fill="none" stroke="#000000" d="M91.000,285.768 L154.232,349.001"/><path fill="none" stroke="#000000" d="M165.034,349.000 L349.000,165.035"/><path fill="none" stroke="#000000" d="M349.000,169.811 L270.188,91.000"/><path fill="none" stroke="#000000" d="M267.220,91.000 L91.000,267.220"/><path fill="none" stroke="#000000" d="M91.000,270.186 L169.813,349.000"/><path fill="none" stroke="#000000" d="M180.616,349.000 L349.000,180.617"/><path fill="none" stroke="#000000" d="M349.000,185.393 L254.607,91.000"/><path fill="none" stroke="#000000" d="M251.638,91.000 L91.000,251.638"/><path fill="none" stroke="#000000" d="M91.000,254.606 L185.394,349.000"/><path fill="none" stroke="#000000" d="M196.198,349.000 L349.000,196.198"/><path fill="none" stroke="#000000" d="M349.000,200.976 L239.025,91.000"/><path fill="none" stroke="#000000" d="M236.057,91.000 L91.000,236.057"/><path fill="none" stroke="#000000" d="M91.000,239.023 L200.977,349.000"/><path fill="none" stroke="#000000" d="M211.780,349.000 L349.000,211.780"/><path fill="none" stroke="#000000" d="M349.000,216.556 L223.444,91.000"/><path fill="none" stroke="#000000" d="M220.475,91.000 L91.000,220.475"/><path fill="none" stroke="#000000" d="M91.000,223.442 L216.557,349.000"/><path fill="none" stroke="#000000" d="M227.360,349.000 L349.000,227.361"/><path fill="none" stroke="#000000" d="M349.000,232.138 L207.862,91.000"/><path fill="none" stroke="#000000" d="M204.894,91.000 L91.000,204.894"/><path fill="none" stroke="#000000" d="M91.000,207.860 L232.140,349.000"/><path fill="none" stroke="#000000" d="M242.943,349.000 L349.000,242.943"/><path fill="none" stroke="#000000" d="M349.000,247.719 L192.281,91.000"/><path fill="none" stroke="#000000" d="M189.312,91.000 L91.000,189.312"/><path fill="none" stroke="#000000" d="M90.999,192.278 L247.721,349.000"/><path fill="none" stroke="#000000" d="M258.524,349.000 L349.000,258.524"/><path fill="none" stroke="#000000" d="M349.000,263.301 L176.699,91.000"/><path fill="none" stroke="#000000" d="M173.730,91.000 L91.000,173.731"/><path fill="none" stroke="#000000" d="M91.000,176.698 L263.302,349.000"/><path fill="none" stroke="#000000" d="M274.106,349.000 L349.000,274.106"/><path fill="none" stroke="#000000" d="M349.000,278.883 L161.117,91.000"/><path fill="none" stroke="#000000" d="M158.149,91.000 L91.000,158.149"/><path fill="none" stroke="#000000" d="M91.000,161.116 L278.884,349.000"/><path fill="none" stroke="#000000" d="M289.687,349.000 L349.000,289.687"/><path fill="none" stroke="#000000" d="M349.000,294.464 L145.536,91.000"/><path fill="none" stroke="#000000" d="M142.567,91.000 L91.000,142.567"/><path fill="none" stroke="#000000" d="M91.000,145.535 L294.465,349.000"/><path fill="none" stroke="#000000" d="M305.268,349.000 L349.000,305.269"/><path fill="none" stroke="#000000" d="M349.000,310.046 L129.954,91.000"/><path fill="none" stroke="#000000" d="M126.986,91.000 L91.000,126.986"/><path fill="none" stroke="#000000" d="M90.999,129.952 L310.047,349.000"/><path fill="none" stroke="#000000" d="M320.850,349.000 L349.000,320.850"/><path fill="none" stroke="#000000" d="M349.000,325.626 L114.373,91.000"/><path fill="none" stroke="#000000" d="M111.404,91.000 L91.000,111.405"/><path fill="none" stroke="#000000" d="M91.000,114.371 L325.629,349.000"/><path fill="none" stroke="#000000" d="M336.431,349.000 L349.000,336.432"/><path fill="none" stroke="#000000" d="M349.000,341.208 L98.792,91.000"/><path fill="none" stroke="#000000" d="M95.823,91.000 L91.000,95.823"/><path fill="none" stroke="#000000" d="M91.000,98.790 L341.209,349.000"/><path fill="none" stroke="#000000" d="M348.999,91.903 L348.097,91.000"/><path fill="none" stroke="#000000" d="M339.566,66.000 L349.000,56.566"/><path fill="none" stroke="#000000" d="M349.000,36.736 L319.736,66.000"/><path fill="none" stroke="#000000" d="M299.905,66.000 L349.000,16.906"/><path fill="none" stroke="#000000" d="M349.000,-2.925 L280.075,66.000"/><path fill="none" stroke="#000000" d="M260.245,66.000 L349.000,-22.755"/><path fill="none" stroke="#000000" d="M349.000,-42.586 L240.414,66.000"/><path fill="none" stroke="#000000" d="M220.584,66.000 L349.000,-62.416"/><path fill="none" stroke="#000000" d="M349.000,-82.246 L200.754,66.000"/><path fill="none" stroke="#000000" d="M180.923,66.000 L349.000,-102.077"/><path fill="none" stroke="#000000" d="M349.000,-121.907 L161.093,66.000"/><path fill="none" stroke="#000000" d="M141.263,66.000 L349.000,-141.737"/><path fill="none" stroke="#000000" d="M349.000,-161.568 L121.432,66.000"/><path fill="none" stroke="#000000" d="M66.000,60.681 L60.680,66.000"/><path fill="none" stroke="#000000" d="M45.093,66.000 L66.000,45.093"/><path fill="none" stroke="#000000" d="M66.000,29.505 L29.505,66.000"/><path fill="none" stroke="#000000" d="M13.918,66.000 L66.000,13.917"/><path fill="none" stroke="#000000" d="M66.000,-1.670 L-1.670,66.000"/><path fill="none" stroke="#000000" d="M-17.258,66.000 L66.000,-17.258"/><path fill="none" stroke="#000000" d="M66.000,-32.845 L-32.845,66.000"/><path fill="none" stroke="#000000" d="M-48.433,66.000 L66.000,-48.433"/><path fill="none" stroke="#000000" d="M66.000,-64.021 L-64.021,66.000"/><path fill="none" stroke="#000000" d="M-79.608,66.000 L66.000,-79.608"/><path fill="none" stroke="#000000" d="M66.000,-95.196 L-95.196,66.000"/><path fill="none" stroke="#000000" d="M-110.784,66.000 L66.000,-110.784"/><path fill="none" stroke="#000000" d="M66.000,-126.371 L-126.371,66.000"/><path fill="none" stroke="#000000" d="M-141.959,66.000 L66.000,-141.959"/><path fill="none" stroke="#000000" d="M66.000,-157.546 L-157.546,66.000"/><path fill="none" stroke="#000000" d="M-173.134,66.000 L66.000,-173.134"/><path fill="none" stroke="#000000" d="M91.000,-181.193 L101.807,-192.000"/><path fill="none" stroke="#000000" d="M121.638,-192.000 L91.000,-161.362"/><path fill="none" stroke="#000000" d="M91.000,-141.532 L141.468,-192.000"/><path fill="none" stroke="#000000" d="M161.298,-192.000 L91.000,-121.702"/><path fill="none" stroke="#000000" d="M91.000,-101.872 L181.129,-192.000"/></svg>