<svg version="1.1" xmlns="http://www.w3.org/2000/svg" width="1000.0" height="1000.0" viewBox="-500.0 -500.0 1000.0 1000.0"><path fill="none" stroke="#000000" d="M-217.000,-86.927 L-322.074,-192.000"/><path fill="none" stroke="#000000" d="M-318.892,-192.000 L-475.000,-35.892"/><path fill="none" stroke="#000000" d="M-475.000,-27.485 L-381.515,66.000"/><path fill="none" stroke="#000000" d="M-378.490,66.000 L-217.000,-95.490"/><path fill="none" stroke="#000000" d="M-217.000,-106.767 L-302.233,-192.000"/><path fill="none" stroke="#000000" d="M-299.052,-192.000 L-475.000,-16.052"/><path fill="none" stroke="#000000" d="M-475.000,32.036 L-441.036,66.000"/><path fill="none" stroke="#000000" d="M-438.011,66.000 L-217.000,-155.011"/><path fill="none" stroke="#000000" d="M-217.000,-166.287 L-242.713,-192.000"/><path fill="none" stroke="#000000" d="M-239.531,-192.000 L-475.000,43.469"/><path fill="none" stroke="#000000" d="M-475.000,51.876 L-460.876,66.000"/><path fill="none" stroke="#000000" d="M-457.851,66.000 L-217.000,-174.851"/><path fill="none" stroke="#000000" d="M-217.000,-186.127 L-222.873,-192.000"/><path fill="none" stroke="#000000" d="M-219.691,-192.000 L-475.000,63.309"/><path fill="none" stroke="#000000" d="M-475.000,23.629 L-259.371,-192.000"/><path fill="none" stroke="#000000" d="M-262.553,-192.000 L-217.000,-146.447"/><path fill="none" stroke="#000000" d="M-217.000,-135.171 L-418.171,66.000"/><path fill="none" stroke="#000000" d="M-421.196,66.000 L-475.000,12.196"/><path fill="none" stroke="#000000" d="M-475.000,3.789 L-279.211,-192.000"/><path fill="none" stroke="#000000" d="M-282.393,-192.000 L-217.000,-126.607"/><path fill="none" stroke="#000000" d="M-217.000,-115.331 L-398.331,66.000"/><path fill="none" stroke="#000000" d="M-401.356,66.000 L-475.000,-7.644"/><path fill="none" stroke="#000000" d="M-475.000,-47.325 L-361.675,66.000"/><path fill="none" stroke="#000000" d="M-358.650,66.000 L-217.000,-75.650"/><path fill="none" stroke="#000000" d="M-217.000,-67.087 L-341.914,-192.000"/><path fill="none" stroke="#000000" d="M-338.732,-192.000 L-475.000,-55.732"/><path fill="none" stroke="#000000" d="M-475.000,-67.165 L-341.835,66.000"/><path fill="none" stroke="#000000" d="M-338.810,66.000 L-217.000,-55.810"/><path fill="none" stroke="#000000" d="M-217.000,-47.247 L-361.754,-192.000"/><path fill="none" stroke="#000000" d="M-358.572,-192.000 L-475.000,-75.572"/><path fill="none" stroke="#000000" d="M-475.000,-87.005 L-321.995,66.000"/><path fill="none" stroke="#000000" d="M-318.970,66.000 L-217.000,-35.970"/><path fill="none" stroke="#000000" d="M-217.000,-27.406 L-381.594,-192.000"/><path fill="none" stroke="#000000" d="M-378.412,-192.000 L-475.000,-95.412"/><path fill="none" stroke="#000000" d="M-475.000,-106.845 L-302.155,66.000"/><path fill="none" stroke="#000000" d="M-299.130,66.000 L-217.000,-16.130"/><path fill="none" stroke="#000000" d="M-217.000,-7.566 L-401.434,-192.000"/><path fill="none" stroke="#000000" d="M-398.252,-192.000 L-475.000,-115.252"/><path fill="none" stroke="#000000" d="M-475.000,-126.685 L-282.315,66.000"/><path fill="none" stroke="#000000" d="M-279.290,66.000 L-217.000,3.710"/><path fill="none" stroke="#000000" d="M-217.000,12.274 L-421.274,-192.000"/><path fill="none" stroke="#000000" d="M-418.092,-192.000 L-475.000,-135.092"/><path fill="none" stroke="#000000" d="M-475.000,-146.525 L-262.474,66.000"/><path fill="none" stroke="#000000" d="M-259.450,66.000 L-217.000,23.550"/><path fill="none" stroke="#000000" d="M-217.000,32.114 L-441.114,-192.000"/><path fill="none" stroke="#000000" d="M-437.933,-192.000 L-475.000,-154.933"/><path fill="none" stroke="#000000" d="M-475.000,-166.365 L-242.634,66.000"/><path fill="none" stroke="#000000" d="M-239.610,66.000 L-217.000,43.390"/><path fill="none" stroke="#000000" d="M-217.000,51.954 L-460.954,-192.000"/><path fill="none" stroke="#000000" d="M-457.773,-192.000 L-475.000,-174.773"/><path fill="none" stroke="#000000" d="M-475.000,-186.206 L-222.795,66.000"/><path fill="none" stroke="#000000" d="M-219.770,66.000 L-217.000,63.231"/><path fill="none" stroke="#000000" d="M-190.099,91.000 L-192.000,92.902"/><path fill="none" stroke="#000000" d="M-192.000,98.397 L58.603,349.000"/><path fill="none" stroke="#000000" d="M56.863,349.000 L66.000,339.863"/><path fill="none" stroke="#000000" d="M66.000,332.351 L-175.351,91.000"/><path fill="none" stroke="#000000" d="M-166.053,91.000 L-192.000,116.947"/><path fill="none" stroke="#000000" d="M-192.000,122.443 L34.558,349.000"/><path fill="none" stroke="#000000" d="M32.817,349.000 L66.000,315.817"/><path fill="none" stroke="#000000" d="M66.000,308.305 L-151.305,91.000"/><path fill="none" stroke="#000000" d="M-142.007,91.000 L-192.000,140.993"/><path fill="none" stroke="#000000" d="M-192.000,146.488 L10.512,349.000"/><path fill="none" stroke="#000000" d="M8.772,349.000 L66.000,291.771"/><path fill="none" stroke="#000000" d="M66.000,284.259 L-127.259,91.000"/><path fill="none" stroke="#000000" d="M-117.961,91.000 L-192.000,165.039"/><path fill="none" stroke="#000000" d="M-192.000,170.534 L-13.534,349.000"/><path fill="none" stroke="#000000" d="M-15.274,349.000 L66.000,267.726"/><path fill="none" stroke="#000000" d="M66.000,260.213 L-103.213,91.000"/><path fill="none" stroke="#000000" d="M-93.915,91.000 L-192.000,189.085"/><path fill="none" stroke="#000000" d="M-192.000,194.580 L-37.580,349.000"/><path fill="none" stroke="#000000" d="M-39.320,349.000 L66.000,243.680"/><path fill="none" stroke="#000000" d="M66.000,236.167 L-79.167,91.000"/><path fill="none" stroke="#000000" d="M-69.870,91.000 L-192.000,213.130"/><path fill="none" stroke="#000000" d="M-192.000,218.625 L-61.625,349.000"/><path fill="none" stroke="#000000" d="M-63.366,349.000 L66.000,219.634"/><path fill="none" stroke="#000000" d="M66.000,212.122 L-55.122,91.000"/><path fill="none" stroke="#000000" d="M-45.824,91.000 L-192.000,237.176"/><path fill="none" stroke="#000000" d="M-192.000,242.671 L-85.671,349.000"/><path fill="none" stroke="#000000" d="M-87.412,349.000 L66.000,195.588"/><path fill="none" stroke="#000000" d="M66.000,188.076 L-31.076,91.000"/><path fill="none" stroke="#000000" d="M-21.778,91.000 L-192.000,261.222"/><path fill="none" stroke="#000000" d="M-192.000,266.717 L-109.717,349.000"/><path fill="none" stroke="#000000" d="M-111.457,349.000 L66.000,171.543"/><path fill="none" stroke="#000000" d="M66.000,164.030 L-7.030,91.000"/><path fill="none" stroke="#000000" d="M2.268,91.000 L-192.000,285.268"/><path fill="none" stroke="#000000" d="M-192.000,290.763 L-133.763,349.000"/><path fill="none" stroke="#000000" d="M-135.503,349.000 L66.000,147.497"/><path fill="none" stroke="#000000" d="M66.000,139.985 L17.016,91.000"/><path fill="none" stroke="#000000" d="M26.313,91.000 L-192.000,309.313"/><path fill="none" stroke="#000000" d="M-192.000,314.809 L-157.809,349.000"/><path fill="none" stroke="#000000" d="M-159.549,349.000 L66.000,123.451"/><path fill="none" stroke="#000000" d="M66.000,115.938 L41.062,91.000"/><path fill="none" stroke="#000000" d="M50.359,91.000 L-192.000,333.359"/><path fill="none" stroke="#000000" d="M-192.000,338.854 L-181.854,349.000"/><path fill="none" stroke="#000000" d="M-183.595,349.000 L66.000,99.405"/><path fill="none" stroke="#000000" d="M66.000,91.893 L65.107,91.000"/><path fill="none" stroke="#000000" d="M54.954,-217.000 L-192.000,-463.954"/><path fill="none" stroke="#000000" d="M-192.000,-459.734 L-176.734,-475.000"/><path fill="none" stroke="#000000" d="M-176.170,-475.000 L66.000,-232.830"/><path fill="none" stroke="#000000" d="M66.000,-233.957 L49.042,-217.000"/><path fill="none" stroke="#000000" d="M28.077,-217.000 L-192.000,-437.077"/><path fill="none" stroke="#000000" d="M-192.000,-432.857 L-149.857,-475.000"/><path fill="none" stroke="#000000" d="M-149.293,-475.000 L66.000,-259.707"/><path fill="none" stroke="#000000" d="M66.000,-260.834 L22.166,-217.000"/><path fill="none" stroke="#000000" d="M1.201,-217.000 L-192.000,-410.201"/><path fill="none" stroke="#000000" d="M-192.000,-405.981 L-122.981,-475.000"/><path fill="none" stroke="#000000" d="M-122.417,-475.000 L66.000,-286.583"/><path fill="none" stroke="#000000" d="M66.000,-287.710 L-4.711,-217.000"/><path fill="none" stroke="#000000" d="M-25.675,-217.000 L-192.000,-383.325"/><path fill="none" stroke="#000000" d="M-192.000,-379.104 L-96.104,-475.000"/><path fill="none" stroke="#000000" d="M-95.540,-475.000 L66.000,-313.460"/><path fill="none" stroke="#000000" d="M66.000,-314.587 L-31.587,-217.000"/><path fill="none" stroke="#000000" d="M-52.552,-217.000 L-192.000,-356.448"/><path fill="none" stroke="#000000" d="M-192.000,-352.228 L-69.228,-475.000"/><path fill="none" stroke="#000000" d="M-68.664,-475.000 L66.000,-340.336"/><path fill="none" stroke="#000000" d="M66.000,-341.463 L-58.463,-217.000"/><path fill="none" stroke="#000000" d="M-79.428,-217.000 L-192.000,-329.572"/><path fill="none" stroke="#000000" d="M-192.000,-325.351 L-42.351,-475.000"/><path fill="none" stroke="#000000" d="M-41.787,-475.000 L66.000,-367.213"/><path fill="none" stroke="#000000" d="M66.000,-368.340 L-85.340,-217.000"/><path fill="none" stroke="#000000" d="M-106.305,-217.000 L-192.000,-302.695"/><path fill="none" stroke="#000000" d="M-192.000,-298.475 L-15.475,-475.000"/><path fill="none" stroke="#000000" d="M-14.911,-475.000 L66.000,-394.089"/><path fill="none" stroke="#000000" d="M66.000,-395.216 L-112.216,-217.000"/><path fill="none" stroke="#000000" d="M-133.181,-217.000 L-192.000,-275.819"/><path fill="none" stroke="#000000" d="M-192.000,-271.598 L11.402,-475.000"/><path fill="none" stroke="#000000" d="M11.966,-475.000 L66.000,-420.966"/><path fill="none" stroke="#000000" d="M66.000,-422.093 L-139.093,-217.000"/><path fill="none" stroke="#000000" d="M-160.057,-217.000 L-192.000,-248.942"/><path fill="none" stroke="#000000" d="M-192.000,-244.722 L38.278,-475.000"/><path fill="none" stroke="#000000" d="M38.842,-475.000 L66.000,-447.842"/><path fill="none" stroke="#000000" d="M66.000,-448.969 L-165.969,-217.000"/><path fill="none" stroke="#000000" d="M-186.934,-217.000 L-192.000,-222.066"/><path fill="none" stroke="#000000" d="M-192.000,-217.846 L65.154,-475.000"/><path fill="none" stroke="#000000" d="M65.719,-475.000 L66.000,-474.718"/><path fill="none" stroke="#000000" d="M-217.000,-472.021 L-219.979,-475.000"/><path fill="none" stroke="#000000" d="M-217.000,-469.074 L-469.074,-217.000"/><path fill="none" stroke="#000000" d="M-472.020,-217.000 L-475.000,-219.980"/><path fill="none" stroke="#000000" d="M-475.000,-228.075 L-228.075,-475.000"/><path fill="none" stroke="#000000" d="M-236.981,-475.000 L-217.000,-455.019"/><path fill="none" stroke="#000000" d="M-217.000,-452.073 L-452.073,-217.000"/><path fill="none" stroke="#000000" d="M-455.019,-217.000 L-475.000,-236.981"/><path fill="none" stroke="#000000" d="M-475.000,-245.077 L-245.077,-475.000"/><path fill="none" stroke="#000000" d="M-253.982,-475.000 L-217.000,-438.018"/><path fill="none" stroke="#000000" d="M-217.000,-435.071 L-435.071,-217.000"/><path fill="none" stroke="#000000" d="M-438.018,-217.000 L-475.000,-253.982"/><path fill="none" stroke="#000000" d="M-475.000,-262.078 L-262.078,-475.000"/><path fill="none" stroke="#000000" d="M-270.983,-475.000 L-217.000,-421.017"/><path fill="none" stroke="#000000" d="M-217.000,-418.070 L-418.070,-217.000"/><path fill="none" stroke="#000000" d="M-421.016,-217.000 L-475.000,-270.984"/><path fill="none" stroke="#000000" d="M-475.000,-279.080 L-279.080,-475.000"/><path fill="none" stroke="#000000" d="M-287.985,-475.000 L-217.000,-404.015"/><path fill="none" stroke="#000000" d="M-217.000,-401.069 L-401.069,-217.000"/><path fill="none" stroke="#000000" d="M-404.015,-217.000 L-475.000,-287.985"/><path fill="none" stroke="#000000" d="M-475.000,-296.081 L-296.081,-475.000"/><path fill="none" stroke="#000000" d="M-304.986,-475.000 L-217.000,-387.014"/><path fill="none" stroke="#000000" d="M-217.000,-384.067 L-384.067,-217.000"/><path fill="none" stroke="#000000" d="M-387.014,-217.000 L-475.000,-304.987"/><path fill="none" stroke="#000000" d="M-475.000,-313.082 L-313.082,-475.000"/><path fill="none" stroke="#000000" d="M-321.988,-475.000 L-217.000,-370.013"/><path fill="none" stroke="#000000" d="M-217.000,-367.066 L-367.066,-217.000"/><path fill="none" stroke="#000000" d="M-370.012,-217.000 L-475.000,-321.988"/><path fill="none" stroke="#000000" d="M-475.000,-330.084 L-330.084,-475.000"/><path fill="none" stroke="#000000" d="M-338.989,-475.000 L-217.000,-353.011"/><path fill="none" stroke="#000000" d="M-217.000,-350.064 L-350.064,-217.000"/><path fill="none" stroke="#000000" d="M-353.011,-217.000 L-475.000,-338.989"/><path fill="none" stroke="#000000" d="M-475.000,-347.085 L-347.085,-475.000"/><path fill="none" stroke="#000000" d="M-355.990,-475.000 L-217.000,-336.010"/><path fill="none" stroke="#000000" d="M-217.000,-333.063 L-333.063,-217.000"/><path fill="none" stroke="#000000" d="M-336.009,-217.000 L-475.000,-355.991"/><path fill="none" stroke="#000000" d="M-475.000,-364.086 L-364.086,-475.000"/><path fill="none" stroke="#000000" d="M-372.992,-475.000 L-217.000,-319.008"/><path fill="none" stroke="#000000" d="M-217.000,-316.062 L-316.062,-217.000"/><path fill="none" stroke="#000000" d="M-319.008,-217.000 L-475.000,-372.992"/><path fill="none" stroke="#000000" d="M-475.000,-381.088 L-381.088,-475.000"/><path fill="none" stroke="#000000" d="M-389.993,-475.000 L-217.000,-302.007"/><path fill="none" stroke="#000000" d="M-217.000,-299.060 L-299.060,-217.000"/><path fill="none" stroke="#000000" d="M-302.007,-217.000 L-475.000,-389.993"/><path fill="none" stroke="#000000" d="M-475.000,-398.089 L-398.089,-475.000"/><path fill="none" stroke="#000000" d="M-406.994,-475.000 L-217.000,-285.006"/><path fill="none" stroke="#000000" d="M-217.000,-282.059 L-282.059,-217.000"/><path fill="none" stroke="#000000" d="M-285.005,-217.000 L-475.000,-406.995"/><path fill="none" stroke="#000000" d="M-475.000,-415.090 L-415.090,-475.000"/><path fill="none" stroke="#000000" d="M-423.996,-475.000 L-217.000,-268.004"/><path fill="none" stroke="#000000" d="M-217.000,-265.058 L-265.058,-217.000"/><path fill="none" stroke="#000000" d="M-268.004,-217.000 L-475.000,-423.996"/><path fill="none" stroke="#000000" d="M-475.000,-432.092 L-432.092,-475.000"/><path fill="none" stroke="#000000" d="M-440.997,-475.000 L-217.000,-251.003"/><path fill="none" stroke="#000000" d="M-217.000,-248.056 L-248.056,-217.000"/><path fill="none" stroke="#000000" d="M-251.003,-217.000 L-475.000,-440.998"/><path fill="none" stroke="#000000" d="M-475.000,-449.093 L-449.093,-475.000"/><path fill="none" stroke="#000000" d="M-457.998,-475.000 L-217.000,-234.002"/><path fill="none" stroke="#000000" d="M-217.000,-231.055 L-231.055,-217.000"/><path fill="none" stroke="#000000" d="M-234.001,-217.000 L-475.000,-457.999"/><path fill="none" stroke="#000000" d="M-475.000,-466.095 L-466.095,-475.000"/><path fill="none" stroke="#000000" d="M-475.000,-475.000 L-217.000,-217.000"/></svg>