<svg version="1.1" xmlns="http://www.w3.org/2000/svg" width="1000.0" height="1000.0" viewBox="-500.0 -500.0 1000.0 1000.0"><path fill="none" stroke="#000000" d="M-463.000,-463.000 L-463.000,-230.000 L-230.000,-230.000 L-230.000,-463.000 L-463.000,-463.000"/><path fill="none" stroke="#000000" d="M-450.000,-450.000 L-450.000,-243.000 L-243.000,-243.000 L-243.000,-450.000 L-450.000,-450.000"/><path fill="none" stroke="#000000" d="M-437.000,-437.000 L-437.000,-256.000 L-256.000,-256.000 L-256.000,-437.000 L-437.000,-437.000"/><path fill="none" stroke="#000000" d="M-424.000,-424.000 L-424.000,-269.000 L-269.000,-269.000 L-269.000,-424.000 L-424.000,-424.000"/><path fill="none" stroke="#000000" d="M-411.000,-411.000 L-411.000,-282.000 L-282.000,-282.000 L-282.000,-411.000 L-411.000,-411.000"/><path fill="none" stroke="#000000" d="M-398.000,-398.000 L-398.000,-295.000 L-295.000,-295.000 L-295.000,-398.000 L-398.000,-398.000"/><path fill="none" stroke="#000000" d="M-385.000,-385.000 L-385.000,-308.000 L-308.000,-308.000 L-308.000,-385.000 L-385.000,-385.000"/><path fill="none" stroke="#000000" d="M-372.000,-372.000 L-372.000,-321.000 L-321.000,-321.000 L-321.000,-372.000 L-372.000,-372.000"/><path fill="none" stroke="#000000" d="M-359.000,-359.000 L-334.000,-359.000 L-334.000,-334.000 L-359.000,-334.000 L-359.000,-359.000"/><path fill="none" stroke="#000000" d="M-183.000,-466.000 L56.000,-466.000 L56.000,-227.000 L-183.000,-227.000 L-183.000,-466.000"/><path fill="none" stroke="#000000" d="M-173.000,-456.000 L46.000,-456.000 L46.000,-237.000 L-173.000,-237.000 L-173.000,-456.000"/><path fill="none" stroke="#000000" d="M-163.000,-446.000 L36.000,-446.000 L36.000,-247.000 L-163.000,-247.000 L-163.000,-446.000"/><path fill="none" stroke="#000000" d="M-153.000,-436.000 L26.000,-436.000 L26.000,-257.000 L-153.000,-257.000 L-153.000,-436.000"/><path fill="none" stroke="#000000" d="M-143.000,-426.000 L16.000,-426.000 L16.000,-267.000 L-143.000,-267.000 L-143.000,-426.000"/><path fill="none" stroke="#000000" d="M-133.000,-416.000 L6.000,-416.000 L6.000,-277.000 L-133.000,-277.000 L-133.000,-416.000"/><path fill="none" stroke="#000000" d="M-123.000,-406.000 L-4.000,-406.000 L-4.000,-287.000 L-123.000,-287.000 L-123.000,-406.000"/><path fill="none" stroke="#000000" d="M-113.000,-396.000 L-14.000,-396.000 L-14.000,-297.000 L-113.000,-297.000 L-113.000,-396.000"/><path fill="none" stroke="#000000" d="M-103.000,-386.000 L-24.000,-386.000 L-24.000,-307.000 L-103.000,-307.000 L-103.000,-386.000"/><path fill="none" stroke="#000000" d="M-93.000,-376.000 L-34.000,-376.000 L-34.000,-317.000 L-93.000,-317.000 L-93.000,-376.000"/><path fill="none" stroke="#000000" d="M-83.000,-366.000 L-44.000,-366.000 L-44.000,-327.000 L-83.000,-327.000 L-83.000,-366.000"/><path fill="none" stroke="#000000" d="M-73.000,-356.000 L-73.000,-337.000 L-54.000,-337.000 L-54.000,-356.000 L-73.000,-356.000"/><path fill="none" stroke="#000000" d="M109.000,-457.000 L109.000,-236.000 L330.000,-236.000 L330.000,-457.000 L109.000,-457.000"/><path fill="none" stroke="#000000" d="M127.000,-439.000 L312.000,-439.000 L312.000,-254.000 L127.000,-254.000 L127.000,-439.000"/><path fill="none" stroke="#000000" d="M146.000,-420.000 L293.000,-420.000 L293.000,-273.000 L146.000,-273.000 L146.000,-420.000"/><path fill="none" stroke="#000000" d="M164.000,-402.000 L275.000,-402.000 L275.000,-291.000 L164.000,-291.000 L164.000,-402.000"/><path fill="none" stroke="#000000" d="M183.000,-383.000 L256.000,-383.000 L256.000,-310.000 L183.000,-310.000 L183.000,-383.000"/><path fill="none" stroke="#000000" d="M201.000,-365.000 L201.000,-328.000 L238.000,-328.000 L238.000,-365.000 L201.000,-365.000"/><path fill="none" stroke="#000000" d="M107.000,-176.000 L107.000,49.000 L332.000,49.000 L332.000,-176.000 L107.000,-176.000"/><path fill="none" stroke="#000000" d="M123.000,-160.000 L316.000,-160.000 L316.000,33.000 L123.000,33.000 L123.000,-160.000"/><path fill="none" stroke="#000000" d="M139.000,-144.000 L300.000,-144.000 L300.000,17.000 L139.000,17.000 L139.000,-144.000"/><path fill="none" stroke="#000000" d="M155.000,-128.000 L284.000,-128.000 L284.000,1.000 L155.000,1.000 L155.000,-128.000"/><path fill="none" stroke="#000000" d="M171.000,-112.000 L268.000,-112.000 L268.000,-15.000 L171.000,-15.000 L171.000,-112.000"/><path fill="none" stroke="#000000" d="M187.000,-96.000 L252.000,-96.000 L252.000,-31.000 L187.000,-31.000 L187.000,-96.000"/><path fill="none" stroke="#000000" d="M203.000,-80.000 L236.000,-80.000 L236.000,-47.000 L203.000,-47.000 L203.000,-80.000"/><path fill="none" stroke="#000000" d="M267.220,91.000 L91.000,267.220"/><path fill="none" stroke="#000000" d="M91.000,282.801 L282.801,91.000"/><path fill="none" stroke="#000000" d="M298.383,91.000 L91.000,298.383"/><path fill="none" stroke="#000000" d="M91.000,313.965 L313.964,91.000"/><path fill="none" stroke="#000000" d="M329.546,91.000 L91.000,329.546"/><path fill="none" stroke="#000000" d="M91.000,345.128 L345.127,91.000"/><path fill="none" stroke="#000000" d="M349.000,102.709 L102.709,349.000"/><path fill="none" stroke="#000000" d="M118.290,349.000 L349.000,118.291"/><path fill="none" stroke="#000000" d="M349.000,133.872 L133.872,349.000"/><path fill="none" stroke="#000000" d="M149.454,349.000 L349.000,149.454"/><path fill="none" stroke="#000000" d="M349.000,165.035 L165.034,349.000"/><path fill="none" stroke="#000000" d="M180.616,349.000 L349.000,180.617"/><path fill="none" stroke="#000000" d="M349.000,196.198 L196.198,349.000"/><path fill="none" stroke="#000000" d="M211.780,349.000 L349.000,211.780"/><path fill="none" stroke="#000000" d="M349.000,227.361 L227.360,349.000"/><path fill="none" stroke="#000000" d="M242.943,349.000 L349.000,242.943"/><path fill="none" stroke="#000000" d="M349.000,258.524 L258.524,349.000"/><path fill="none" stroke="#000000" d="M274.106,349.000 L349.000,274.106"/><path fill="none" stroke="#000000" d="M349.000,289.687 L289.687,349.000"/><path fill="none" stroke="#000000" d="M305.268,349.000 L349.000,305.269"/><path fill="none" stroke="#000000" d="M349.000,320.850 L320.850,349.000"/><path fill="none" stroke="#000000" d="M336.431,349.000 L349.000,336.432"/><path fill="none" stroke="#000000" d="M251.638,91.000 L91.000,251.638"/><path fill="none" stroke="#000000" d="M91.000,236.057 L236.057,91.000"/><path fill="none" stroke="#000000" d="M220.475,91.000 L91.000,220.475"/><path fill="none" stroke="#000000" d="M91.000,204.894 L204.894,91.000"/><path fill="none" stroke="#000000" d="M189.312,91.000 L91.000,189.312"/><path fill="none" stroke="#000000" d="M91.000,173.731 L173.730,91.000"/><path fill="none" stroke="#000000" d="M158.149,91.000 L91.000,158.149"/><path fill="none" stroke="#000000" d="M91.000,142.567 L142.567,91.000"/><path fill="none" stroke="#000000" d="M126.986,91.000 L91.000,126.986"/><path fill="none" stroke="#000000" d="M91.000,111.405 L111.404,91.000"/><path fill="none" stroke="#000000" d="M95.823,91.000 L91.000,95.823"/><path fill="none" stroke="#000000" d="M51.366,66.000 L66.000,51.366"/><path fill="none" stroke="#000000" d="M66.000,32.927 L32.927,66.000"/><path fill="none" stroke="#000000" d="M14.488,66.000 L66.000,14.488"/><path fill="none" stroke="#000000" d="M66.000,-3.951 L-3.951,66.000"/><path fill="none" stroke="#000000" d="M-22.390,66.000 L66.000,-22.390"/><path fill="none" stroke="#000000" d="M66.000,-40.829 L-40.829,66.000"/><path fill="none" stroke="#000000" d="M-59.268,66.000 L66.000,-59.268"/><path fill="none" stroke="#000000" d="M66.000,-77.707 L-77.707,66.000"/><path fill="none" stroke="#000000" d="M-96.146,66.000 L66.000,-96.146"/><path fill="none" stroke="#000000" d="M66.000,-114.585 L-114.586,66.000"/><path fill="none" stroke="#000000" d="M-133.024,66.000 L66.000,-133.024"/><path fill="none" stroke="#000000" d="M66.000,-151.463 L-151.463,66.000"/><path fill="none" stroke="#000000" d="M-192.000,51.220 L51.219,-192.000"/><path fill="none" stroke="#000000" d="M32.781,-192.000 L-192.000,32.781"/><path fill="none" stroke="#000000" d="M-192.000,14.341 L14.341,-192.000"/><path fill="none" stroke="#000000" d="M-4.098,-192.000 L-192.000,-4.098"/><path fill="none" stroke="#000000" d="M-192.000,-22.536 L-22.536,-192.000"/><path fill="none" stroke="#000000" d="M-40.976,-192.000 L-192.000,-40.975"/><path fill="none" stroke="#000000" d="M-192.000,-59.414 L-59.414,-192.000"/><path fill="none" stroke="#000000" d="M-77.853,-192.000 L-192.000,-77.853"/><path fill="none" stroke="#000000" d="M-192.000,-96.293 L-96.293,-192.000"/><path fill="none" stroke="#000000" d="M-114.732,-192.000 L-192.000,-114.732"/><path fill="none" stroke="#000000" d="M-192.000,-133.170 L-133.171,-192.000"/><path fill="none" stroke="#000000" d="M-151.610,-192.000 L-192.000,-151.610"/><path fill="none" stroke="#000000" d="M-192.000,-170.049 L-170.049,-192.000"/><path fill="none" stroke="#000000" d="M-188.488,-192.000 L-192.000,-188.488"/><path fill="none" stroke="#000000" d="M-217.000,-139.093 L-422.093,66.000"/><path fill="none" stroke="#000000" d="M-395.216,66.000 L-217.000,-112.216"/><path fill="none" stroke="#000000" d="M-217.000,-85.340 L-368.340,66.000"/><path fill="none" stroke="#000000" d="M-341.463,66.000 L-217.000,-58.463"/><path fill="none" stroke="#000000" d="M-217.000,-31.587 L-314.587,66.000"/><path fill="none" stroke="#000000" d="M-287.710,66.000 L-217.000,-4.710"/><path fill="none" stroke="#000000" d="M-217.000,22.166 L-260.834,66.000"/><path fill="none" stroke="#000000" d="M-233.957,66.000 L-217.000,49.042"/><path fill="none" stroke="#000000" d="M-188.341,66.000 L66.000,-188.341"/><path fill="none" stroke="#000000" d="M66.000,-169.902 L-169.902,66.000"/><path fill="none" stroke="#000000" d="M-176.000,107.000 L-176.000,332.000 L49.000,332.000 L49.000,107.000 L-176.000,107.000"/><path fill="none" stroke="#000000" d="M-160.000,123.000 L33.000,123.000 L33.000,316.000 L-160.000,316.000 L-160.000,123.000"/><path fill="none" stroke="#000000" d="M-144.000,139.000 L17.000,139.000 L17.000,300.000 L-144.000,300.000 L-144.000,139.000"/><path fill="none" stroke="#000000" d="M-128.000,155.000 L1.000,155.000 L1.000,284.000 L-128.000,284.000 L-128.000,155.000"/><path fill="none" stroke="#000000" d="M-112.000,171.000 L-15.000,171.000 L-15.000,268.000 L-112.000,268.000 L-112.000,171.000"/><path fill="none" stroke="#000000" d="M-96.000,187.000 L-31.000,187.000 L-31.000,252.000 L-96.000,252.000 L-96.000,187.000"/><path fill="none" stroke="#000000" d="M-80.000,203.000 L-80.000,236.000 L-47.000,236.000 L-47.000,203.000 L-80.000,203.000"/><path fill="none" stroke="#000000" d="M-217.000,345.054 L-220.946,349.000"/><path fill="none" stroke="#000000" d="M-217.000,326.627 L-239.374,349.000"/><path fill="none" stroke="#000000" d="M-257.801,349.000 L-217.000,308.199"/><path fill="none" stroke="#000000" d="M-217.000,289.771 L-276.229,349.000"/><path fill="none" stroke="#000000" d="M-294.656,349.000 L-217.000,271.344"/><path fill="none" stroke="#000000" d="M-217.000,252.916 L-313.084,349.000"/><path fill="none" stroke="#000000" d="M-331.511,349.000 L-217.000,234.489"/><path fill="none" stroke="#000000" d="M-217.000,216.061 L-349.939,349.000"/><path fill="none" stroke="#000000" d="M-368.367,349.000 L-217.000,197.633"/><path fill="none" stroke="#000000" d="M-217.000,179.206 L-386.794,349.000"/><path fill="none" stroke="#000000" d="M-405.222,349.000 L-217.000,160.778"/><path fill="none" stroke="#000000" d="M-217.000,142.351 L-423.649,349.000"/><path fill="none" stroke="#000000" d="M-442.077,349.000 L-217.000,123.923"/><path fill="none" stroke="#000000" d="M-217.000,105.495 L-460.505,349.000"/><path fill="none" stroke="#000000" d="M-475.000,345.068 L-220.932,91.000"/><path fill="none" stroke="#000000" d="M-239.360,91.000 L-475.000,326.640"/><path fill="none" stroke="#000000" d="M-475.000,308.213 L-257.787,91.000"/><path fill="none" stroke="#000000" d="M-276.215,91.000 L-475.000,289.785"/><path fill="none" stroke="#000000" d="M-475.000,271.357 L-294.643,91.000"/><path fill="none" stroke="#000000" d="M-313.070,91.000 L-475.000,252.930"/><path fill="none" stroke="#000000" d="M-475.000,234.502 L-331.498,91.000"/><path fill="none" stroke="#000000" d="M-349.925,91.000 L-475.000,216.075"/><path fill="none" stroke="#000000" d="M-475.000,197.647 L-368.353,91.000"/><path fill="none" stroke="#000000" d="M-386.781,91.000 L-475.000,179.219"/><path fill="none" stroke="#000000" d="M-475.000,160.792 L-405.208,91.000"/><path fill="none" stroke="#000000" d="M-423.636,91.000 L-475.000,142.364"/><path fill="none" stroke="#000000" d="M-475.000,123.937 L-442.063,91.000"/><path fill="none" stroke="#000000" d="M-448.969,66.000 L-217.000,-165.969"/><path fill="none" stroke="#000000" d="M-217.846,-192.000 L-475.000,65.154"/><path fill="none" stroke="#000000" d="M-475.000,38.278 L-244.722,-192.000"/><path fill="none" stroke="#000000" d="M-271.598,-192.000 L-475.000,11.402"/><path fill="none" stroke="#000000" d="M-475.000,-15.475 L-298.475,-192.000"/><path fill="none" stroke="#000000" d="M-325.351,-192.000 L-475.000,-42.351"/><path fill="none" stroke="#000000" d="M-475.000,-69.228 L-352.228,-192.000"/><path fill="none" stroke="#000000" d="M-379.104,-192.000 L-475.000,-96.104"/><path fill="none" stroke="#000000" d="M-475.000,-122.981 L-405.981,-192.000"/><path fill="none" stroke="#000000" d="M-432.857,-192.000 L-475.000,-149.857"/><path fill="none" stroke="#000000" d="M-475.000,-176.734 L-459.734,-192.000"/><path fill="none" stroke="#000000" d="M-460.491,91.000 L-475.000,105.509"/></svg>