<svg version="1.1" xmlns="http://www.w3.org/2000/svg" width="1000.0" height="1000.0" viewBox="-500.0 -500.0 1000.0 1000.0"><path fill="none" stroke="#000000" d="M140.993,-192.000 L91.000,-142.007"/><path fill="none" stroke="#000000" d="M91.000,-190.099 L92.901,-192.000"/><path fill="none" stroke="#000000" d="M116.947,-192.000 L91.000,-166.053"/><path fill="none" stroke="#000000" d="M91.000,-117.961 L165.039,-192.000"/><path fill="none" stroke="#000000" d="M189.085,-192.000 L91.000,-93.915"/><path fill="none" stroke="#000000" d="M91.000,-69.870 L213.130,-192.000"/><path fill="none" stroke="#000000" d="M237.176,-192.000 L91.000,-45.824"/><path fill="none" stroke="#000000" d="M91.000,-21.778 L261.222,-192.000"/><path fill="none" stroke="#000000" d="M349.000,56.863 L339.863,66.000"/><path fill="none" stroke="#000000" d="M315.817,66.000 L349.000,32.817"/><path fill="none" stroke="#000000" d="M349.000,8.771 L291.772,66.000"/><path fill="none" stroke="#000000" d="M267.726,66.000 L349.000,-15.274"/><path fill="none" stroke="#000000" d="M349.000,-39.320 L243.680,66.000"/><path fill="none" stroke="#000000" d="M219.634,66.000 L349.000,-63.366"/><path fill="none" stroke="#000000" d="M349.000,-87.412 L195.589,66.000"/><path fill="none" stroke="#000000" d="M171.543,66.000 L349.000,-111.457"/><path fill="none" stroke="#000000" d="M349.000,-135.503 L147.497,66.000"/><path fill="none" stroke="#000000" d="M123.451,66.000 L349.000,-159.549"/><path fill="none" stroke="#000000" d="M349.000,-183.595 L99.405,66.000"/><path fill="none" stroke="#000000" d="M91.000,50.359 L333.359,-192.000"/><path fill="none" stroke="#000000" d="M309.314,-192.000 L91.000,26.313"/><path fill="none" stroke="#000000" d="M91.000,2.268 L285.268,-192.000"/><path fill="none" stroke="#000000" d="M205.000,-361.000 L205.000,-332.000 L234.000,-332.000 L234.000,-361.000 L205.000,-361.000"/><path fill="none" stroke="#000000" d="M191.000,-375.000 L191.000,-318.000 L248.000,-318.000 L248.000,-375.000 L191.000,-375.000"/><path fill="none" stroke="#000000" d="M177.000,-389.000 L177.000,-304.000 L262.000,-304.000 L262.000,-389.000 L177.000,-389.000"/><path fill="none" stroke="#000000" d="M162.000,-404.000 L162.000,-289.000 L277.000,-289.000 L277.000,-404.000 L162.000,-404.000"/><path fill="none" stroke="#000000" d="M148.000,-418.000 L148.000,-275.000 L291.000,-275.000 L291.000,-418.000 L148.000,-418.000"/><path fill="none" stroke="#000000" d="M134.000,-432.000 L134.000,-261.000 L305.000,-261.000 L305.000,-432.000 L134.000,-432.000"/><path fill="none" stroke="#000000" d="M119.000,-447.000 L119.000,-246.000 L320.000,-246.000 L320.000,-447.000 L119.000,-447.000"/><path fill="none" stroke="#000000" d="M105.000,-461.000 L334.000,-461.000 L334.000,-232.000 L105.000,-232.000 L105.000,-461.000"/><path fill="none" stroke="#000000" d="M-75.000,-358.000 L-52.000,-358.000 L-52.000,-335.000 L-75.000,-335.000 L-75.000,-358.000"/><path fill="none" stroke="#000000" d="M-87.000,-370.000 L-87.000,-323.000 L-40.000,-323.000 L-40.000,-370.000 L-87.000,-370.000"/><path fill="none" stroke="#000000" d="M-99.000,-382.000 L-99.000,-311.000 L-28.000,-311.000 L-28.000,-382.000 L-99.000,-382.000"/><path fill="none" stroke="#000000" d="M-110.000,-393.000 L-110.000,-300.000 L-17.000,-300.000 L-17.000,-393.000 L-110.000,-393.000"/><path fill="none" stroke="#000000" d="M-122.000,-405.000 L-122.000,-288.000 L-5.000,-288.000 L-5.000,-405.000 L-122.000,-405.000"/><path fill="none" stroke="#000000" d="M-134.000,-417.000 L-134.000,-276.000 L7.000,-276.000 L7.000,-417.000 L-134.000,-417.000"/><path fill="none" stroke="#000000" d="M-146.000,-429.000 L-146.000,-264.000 L19.000,-264.000 L19.000,-429.000 L-146.000,-429.000"/><path fill="none" stroke="#000000" d="M-157.000,-440.000 L-157.000,-253.000 L30.000,-253.000 L30.000,-440.000 L-157.000,-440.000"/><path fill="none" stroke="#000000" d="M-169.000,-452.000 L-169.000,-241.000 L42.000,-241.000 L42.000,-452.000 L-169.000,-452.000"/><path fill="none" stroke="#000000" d="M-181.000,-464.000 L54.000,-464.000 L54.000,-229.000 L-181.000,-229.000 L-181.000,-464.000"/><path fill="none" stroke="#000000" d="M-359.000,-359.000 L-334.000,-359.000 L-334.000,-334.000 L-359.000,-334.000 L-359.000,-359.000"/><path fill="none" stroke="#000000" d="M-372.000,-372.000 L-372.000,-321.000 L-321.000,-321.000 L-321.000,-372.000 L-372.000,-372.000"/><path fill="none" stroke="#000000" d="M-385.000,-385.000 L-385.000,-308.000 L-308.000,-308.000 L-308.000,-385.000 L-385.000,-385.000"/><path fill="none" stroke="#000000" d="M-398.000,-398.000 L-398.000,-295.000 L-295.000,-295.000 L-295.000,-398.000 L-398.000,-398.000"/><path fill="none" stroke="#000000" d="M-411.000,-411.000 L-411.000,-282.000 L-282.000,-282.000 L-282.000,-411.000 L-411.000,-411.000"/><path fill="none" stroke="#000000" d="M-424.000,-424.000 L-424.000,-269.000 L-269.000,-269.000 L-269.000,-424.000 L-424.000,-424.000"/><path fill="none" stroke="#000000" d="M-437.000,-437.000 L-437.000,-256.000 L-256.000,-256.000 L-256.000,-437.000 L-437.000,-437.000"/><path fill="none" stroke="#000000" d="M-450.000,-450.000 L-450.000,-243.000 L-243.000,-243.000 L-243.000,-450.000 L-450.000,-450.000"/><path fill="none" stroke="#000000" d="M-463.000,-463.000 L-463.000,-230.000 L-230.000,-230.000 L-230.000,-463.000 L-463.000,-463.000"/><path fill="none" stroke="#000000" d="M-178.000,-178.000 L-178.000,51.000 L51.000,51.000 L51.000,-178.000 L-178.000,-178.000"/><path fill="none" stroke="#000000" d="M-164.000,-164.000 L-164.000,37.000 L37.000,37.000 L37.000,-164.000 L-164.000,-164.000"/><path fill="none" stroke="#000000" d="M-149.000,-149.000 L-149.000,22.000 L22.000,22.000 L22.000,-149.000 L-149.000,-149.000"/><path fill="none" stroke="#000000" d="M-135.000,-135.000 L-135.000,8.000 L8.000,8.000 L8.000,-135.000 L-135.000,-135.000"/><path fill="none" stroke="#000000" d="M-121.000,-121.000 L-121.000,-6.000 L-6.000,-6.000 L-6.000,-121.000 L-121.000,-121.000"/><path fill="none" stroke="#000000" d="M-106.000,-106.000 L-106.000,-21.000 L-21.000,-21.000 L-21.000,-106.000 L-106.000,-106.000"/><path fill="none" stroke="#000000" d="M-92.000,-92.000 L-92.000,-35.000 L-35.000,-35.000 L-35.000,-92.000 L-92.000,-92.000"/><path fill="none" stroke="#000000" d="M-78.000,-78.000 L-49.000,-78.000 L-49.000,-49.000 L-78.000,-49.000 L-78.000,-78.000"/><path fill="none" stroke="#000000" d="M-182.000,101.000 L55.000,101.000 L55.000,338.000 L-182.000,338.000 L-182.000,101.000"/><path fill="none" stroke="#000000" d="M-171.000,112.000 L-171.000,327.000 L44.000,327.000 L44.000,112.000 L-171.000,112.000"/><path fill="none" stroke="#000000" d="M-160.000,123.000 L-160.000,316.000 L33.000,316.000 L33.000,123.000 L-160.000,123.000"/><path fill="none" stroke="#000000" d="M-149.000,134.000 L-149.000,305.000 L22.000,305.000 L22.000,134.000 L-149.000,134.000"/><path fill="none" stroke="#000000" d="M-139.000,144.000 L-139.000,295.000 L12.000,295.000 L12.000,144.000 L-139.000,144.000"/><path fill="none" stroke="#000000" d="M-128.000,155.000 L-128.000,284.000 L1.000,284.000 L1.000,155.000 L-128.000,155.000"/><path fill="none" stroke="#000000" d="M-117.000,166.000 L-117.000,273.000 L-10.000,273.000 L-10.000,166.000 L-117.000,166.000"/><path fill="none" stroke="#000000" d="M-106.000,177.000 L-106.000,262.000 L-21.000,262.000 L-21.000,177.000 L-106.000,177.000"/><path fill="none" stroke="#000000" d="M-96.000,187.000 L-96.000,252.000 L-31.000,252.000 L-31.000,187.000 L-96.000,187.000"/><path fill="none" stroke="#000000" d="M-85.000,198.000 L-85.000,241.000 L-42.000,241.000 L-42.000,198.000 L-85.000,198.000"/><path fill="none" stroke="#000000" d="M-74.000,209.000 L-74.000,230.000 L-53.000,230.000 L-53.000,209.000 L-74.000,209.000"/></svg>