<svg version="1.1" xmlns="http://www.w3.org/2000/svg" width="1000.0" height="1000.0" viewBox="-500.0 -500.0 1000.0 1000.0"><path fill="none" stroke="#000000" d="M350.000,349.999 L-49.999,-50.000"/><path fill="none" stroke="#000000" d="M-35.423,-50.000 L-50.000,-35.423"/><path fill="none" stroke="#000000" d="M-50.000,-24.492 L324.493,350.000"/><path fill="none" stroke="#000000" d="M329.831,350.000 L350.000,329.831"/><path fill="none" stroke="#000000" d="M350.000,324.490 L-24.490,-50.000"/><path fill="none" stroke="#000000" d="M-9.915,-50.000 L-50.000,-9.914"/><path fill="none" stroke="#000000" d="M-50.000,1.016 L298.983,350.000"/><path fill="none" stroke="#000000" d="M304.322,350.000 L350.000,304.323"/><path fill="none" stroke="#000000" d="M350.000,298.982 L1.018,-50.000"/><path fill="none" stroke="#000000" d="M15.594,-50.000 L-50.000,15.594"/><path fill="none" stroke="#000000" d="M-50.000,26.525 L273.475,350.000"/><path fill="none" stroke="#000000" d="M278.814,350.000 L350.000,278.814"/><path fill="none" stroke="#000000" d="M350.000,273.474 L26.526,-50.000"/><path fill="none" stroke="#000000" d="M41.102,-50.000 L-50.000,41.102"/><path fill="none" stroke="#000000" d="M-50.000,52.033 L247.967,350.000"/><path fill="none" stroke="#000000" d="M253.305,350.000 L350.000,253.305"/><path fill="none" stroke="#000000" d="M350.000,247.965 L52.035,-50.000"/><path fill="none" stroke="#000000" d="M66.611,-50.000 L-50.000,66.611"/><path fill="none" stroke="#000000" d="M-50.001,77.541 L222.459,350.000"/><path fill="none" stroke="#000000" d="M227.797,350.000 L350.000,227.798"/><path fill="none" stroke="#000000" d="M350.000,222.457 L77.543,-50.000"/><path fill="none" stroke="#000000" d="M92.119,-50.000 L-50.000,92.119"/><path fill="none" stroke="#000000" d="M-50.000,103.050 L196.950,350.000"/><path fill="none" stroke="#000000" d="M202.288,350.000 L350.000,202.289"/><path fill="none" stroke="#000000" d="M350.000,196.948 L103.051,-50.000"/><path fill="none" stroke="#000000" d="M117.627,-50.000 L-50.000,117.628"/><path fill="none" stroke="#000000" d="M-50.000,128.559 L171.441,350.000"/><path fill="none" stroke="#000000" d="M176.780,350.000 L350.000,176.780"/><path fill="none" stroke="#000000" d="M350.000,171.440 L128.560,-50.000"/><path fill="none" stroke="#000000" d="M143.136,-50.000 L-50.000,143.136"/><path fill="none" stroke="#000000" d="M-50.000,154.067 L145.933,350.000"/><path fill="none" stroke="#000000" d="M151.272,350.000 L350.000,151.272"/><path fill="none" stroke="#000000" d="M350.000,145.932 L154.068,-50.000"/><path fill="none" stroke="#000000" d="M168.644,-50.000 L-50.000,168.645"/><path fill="none" stroke="#000000" d="M-50.000,179.575 L120.425,350.000"/><path fill="none" stroke="#000000" d="M125.763,350.000 L350.000,125.763"/><path fill="none" stroke="#000000" d="M350.000,120.423 L179.577,-50.000"/><path fill="none" stroke="#000000" d="M194.153,-50.000 L-50.000,194.153"/><path fill="none" stroke="#000000" d="M-50.000,205.084 L94.917,350.000"/><path fill="none" stroke="#000000" d="M100.254,350.000 L350.000,100.254"/><path fill="none" stroke="#000000" d="M350.000,94.915 L205.085,-50.000"/><path fill="none" stroke="#000000" d="M219.662,-50.000 L-50.000,219.662"/><path fill="none" stroke="#000000" d="M-50.001,230.592 L69.408,350.000"/><path fill="none" stroke="#000000" d="M74.746,350.000 L350.000,74.747"/><path fill="none" stroke="#000000" d="M350.000,69.406 L230.594,-50.000"/><path fill="none" stroke="#000000" d="M245.170,-50.000 L-50.000,245.170"/><path fill="none" stroke="#000000" d="M-50.000,256.100 L43.899,350.000"/><path fill="none" stroke="#000000" d="M49.238,350.000 L350.000,49.238"/><path fill="none" stroke="#000000" d="M350.000,43.898 L256.102,-50.000"/><path fill="none" stroke="#000000" d="M270.678,-50.000 L-50.000,270.678"/><path fill="none" stroke="#000000" d="M-50.000,281.609 L18.391,350.000"/><path fill="none" stroke="#000000" d="M23.729,350.000 L350.000,23.729"/><path fill="none" stroke="#000000" d="M350.000,18.389 L281.611,-50.000"/><path fill="none" stroke="#000000" d="M296.187,-50.000 L-50.000,296.187"/><path fill="none" stroke="#000000" d="M-50.000,307.117 L-7.117,350.000"/><path fill="none" stroke="#000000" d="M-1.779,350.000 L350.000,-1.779"/><path fill="none" stroke="#000000" d="M350.000,-7.119 L307.119,-50.000"/><path fill="none" stroke="#000000" d="M321.695,-50.000 L-50.000,321.696"/><path fill="none" stroke="#000000" d="M-50.000,332.626 L-32.626,350.000"/><path fill="none" stroke="#000000" d="M-27.288,350.000 L350.000,-27.287"/><path fill="none" stroke="#000000" d="M350.000,-32.628 L332.627,-50.000"/><path fill="none" stroke="#000000" d="M347.204,-50.000 L-50.000,347.204"/><path fill="none" stroke="#000000" d="M-287.000,138.000 L-287.000,161.000 L-264.000,161.000 L-264.000,138.000 L-287.000,138.000"/><path fill="none" stroke="#000000" d="M-299.000,126.000 L-299.000,173.000 L-252.000,173.000 L-252.000,126.000 L-299.000,126.000"/><path fill="none" stroke="#000000" d="M-311.000,114.000 L-311.000,185.000 L-240.000,185.000 L-240.000,114.000 L-311.000,114.000"/><path fill="none" stroke="#000000" d="M-323.000,102.000 L-323.000,197.000 L-228.000,197.000 L-228.000,102.000 L-323.000,102.000"/><path fill="none" stroke="#000000" d="M-334.000,91.000 L-334.000,208.000 L-217.000,208.000 L-217.000,91.000 L-334.000,91.000"/><path fill="none" stroke="#000000" d="M-346.000,79.000 L-346.000,220.000 L-205.000,220.000 L-205.000,79.000 L-346.000,79.000"/><path fill="none" stroke="#000000" d="M-358.000,67.000 L-358.000,232.000 L-193.000,232.000 L-193.000,67.000 L-358.000,67.000"/><path fill="none" stroke="#000000" d="M-370.000,55.000 L-370.000,244.000 L-181.000,244.000 L-181.000,55.000 L-370.000,55.000"/><path fill="none" stroke="#000000" d="M-381.000,44.000 L-381.000,255.000 L-170.000,255.000 L-170.000,44.000 L-381.000,44.000"/><path fill="none" stroke="#000000" d="M-393.000,32.000 L-393.000,267.000 L-158.000,267.000 L-158.000,32.000 L-393.000,32.000"/><path fill="none" stroke="#000000" d="M-405.000,20.000 L-405.000,279.000 L-146.000,279.000 L-146.000,20.000 L-405.000,20.000"/><path fill="none" stroke="#000000" d="M-417.000,8.000 L-417.000,291.000 L-134.000,291.000 L-134.000,8.000 L-417.000,8.000"/><path fill="none" stroke="#000000" d="M-428.000,-3.000 L-428.000,302.000 L-123.000,302.000 L-123.000,-3.000 L-428.000,-3.000"/><path fill="none" stroke="#000000" d="M-440.000,-15.000 L-440.000,314.000 L-111.000,314.000 L-111.000,-15.000 L-440.000,-15.000"/><path fill="none" stroke="#000000" d="M-452.000,-27.000 L-452.000,326.000 L-99.000,326.000 L-99.000,-27.000 L-452.000,-27.000"/><path fill="none" stroke="#000000" d="M-464.000,-39.000 L-87.000,-39.000 L-87.000,338.000 L-464.000,338.000 L-464.000,-39.000"/><path fill="none" stroke="#000000" d="M-454.770,-75.000 L-75.000,-454.770"/><path fill="none" stroke="#000000" d="M-78.947,-475.000 L-475.000,-78.947"/><path fill="none" stroke="#000000" d="M-475.000,-103.125 L-103.125,-475.000"/><path fill="none" stroke="#000000" d="M-127.303,-475.000 L-475.000,-127.303"/><path fill="none" stroke="#000000" d="M-475.000,-151.480 L-151.480,-475.000"/><path fill="none" stroke="#000000" d="M-175.658,-475.000 L-475.000,-175.658"/><path fill="none" stroke="#000000" d="M-475.000,-199.835 L-199.835,-475.000"/><path fill="none" stroke="#000000" d="M-224.013,-475.000 L-475.000,-224.013"/><path fill="none" stroke="#000000" d="M-475.000,-248.191 L-248.191,-475.000"/><path fill="none" stroke="#000000" d="M-272.368,-475.000 L-475.000,-272.368"/><path fill="none" stroke="#000000" d="M-475.000,-296.546 L-296.546,-475.000"/><path fill="none" stroke="#000000" d="M-320.724,-475.000 L-475.000,-320.724"/><path fill="none" stroke="#000000" d="M-475.000,-344.901 L-344.901,-475.000"/><path fill="none" stroke="#000000" d="M-369.079,-475.000 L-475.000,-369.079"/><path fill="none" stroke="#000000" d="M-475.000,-393.257 L-393.257,-475.000"/><path fill="none" stroke="#000000" d="M-417.434,-475.000 L-475.000,-417.434"/><path fill="none" stroke="#000000" d="M-475.000,-441.612 L-441.612,-475.000"/><path fill="none" stroke="#000000" d="M-465.789,-475.000 L-475.000,-465.789"/><path fill="none" stroke="#000000" d="M-430.592,-75.000 L-75.000,-430.592"/><path fill="none" stroke="#000000" d="M-75.000,-406.415 L-406.415,-75.000"/><path fill="none" stroke="#000000" d="M-382.237,-75.000 L-75.000,-382.237"/><path fill="none" stroke="#000000" d="M-75.000,-358.059 L-358.059,-75.000"/><path fill="none" stroke="#000000" d="M-333.882,-75.000 L-75.000,-333.882"/><path fill="none" stroke="#000000" d="M-75.000,-309.704 L-309.704,-75.000"/><path fill="none" stroke="#000000" d="M-285.526,-75.000 L-75.000,-285.526"/><path fill="none" stroke="#000000" d="M-75.000,-261.349 L-261.349,-75.000"/><path fill="none" stroke="#000000" d="M-237.171,-75.000 L-75.000,-237.171"/><path fill="none" stroke="#000000" d="M-75.000,-212.993 L-212.993,-75.000"/><path fill="none" stroke="#000000" d="M-188.816,-75.000 L-75.000,-188.816"/><path fill="none" stroke="#000000" d="M-75.000,-164.638 L-164.638,-75.000"/><path fill="none" stroke="#000000" d="M-140.460,-75.000 L-75.000,-140.461"/><path fill="none" stroke="#000000" d="M-75.000,-116.283 L-116.283,-75.000"/><path fill="none" stroke="#000000" d="M-92.105,-75.000 L-75.000,-92.105"/><path fill="none" stroke="#000000" d="M-50.000,-88.999 L336.001,-475.000"/><path fill="none" stroke="#000000" d="M336.358,-475.000 L350.000,-461.358"/><path fill="none" stroke="#000000" d="M350.000,-462.071 L-37.070,-75.000"/><path fill="none" stroke="#000000" d="M-44.570,-75.000 L-50.000,-80.430"/><path fill="none" stroke="#000000" d="M-50.000,-107.359 L-17.642,-75.000"/><path fill="none" stroke="#000000" d="M-10.142,-75.000 L350.000,-435.142"/><path fill="none" stroke="#000000" d="M350.000,-434.430 L309.429,-475.000"/><path fill="none" stroke="#000000" d="M309.072,-475.000 L-50.000,-115.927"/><path fill="none" stroke="#000000" d="M-50.000,-134.287 L9.287,-75.000"/><path fill="none" stroke="#000000" d="M16.787,-75.000 L350.000,-408.213"/><path fill="none" stroke="#000000" d="M350.000,-407.501 L282.501,-475.000"/><path fill="none" stroke="#000000" d="M282.144,-475.000 L-50.000,-142.856"/><path fill="none" stroke="#000000" d="M-50.000,-161.216 L36.216,-75.000"/><path fill="none" stroke="#000000" d="M43.715,-75.000 L350.000,-381.285"/><path fill="none" stroke="#000000" d="M350.000,-380.572 L255.572,-475.000"/><path fill="none" stroke="#000000" d="M255.215,-475.000 L-50.000,-169.785"/><path fill="none" stroke="#000000" d="M-50.000,-188.144 L63.144,-75.000"/><path fill="none" stroke="#000000" d="M70.644,-75.000 L350.000,-354.356"/><path fill="none" stroke="#000000" d="M350.000,-353.644 L228.644,-475.000"/><path fill="none" stroke="#000000" d="M228.287,-475.000 L-50.000,-196.713"/><path fill="none" stroke="#000000" d="M-50.000,-215.073 L90.073,-75.000"/><path fill="none" stroke="#000000" d="M97.572,-75.000 L350.000,-327.427"/><path fill="none" stroke="#000000" d="M350.000,-326.715 L201.715,-475.000"/><path fill="none" stroke="#000000" d="M201.359,-475.000 L-50.000,-223.642"/><path fill="none" stroke="#000000" d="M-50.000,-242.002 L117.001,-75.000"/><path fill="none" stroke="#000000" d="M124.501,-75.000 L350.000,-300.499"/><path fill="none" stroke="#000000" d="M350.000,-299.787 L174.787,-475.000"/><path fill="none" stroke="#000000" d="M174.430,-475.000 L-50.000,-250.570"/><path fill="none" stroke="#000000" d="M-50.000,-268.930 L143.930,-75.000"/><path fill="none" stroke="#000000" d="M151.429,-75.000 L350.000,-273.570"/><path fill="none" stroke="#000000" d="M350.000,-272.858 L147.858,-475.000"/><path fill="none" stroke="#000000" d="M147.501,-475.000 L-50.000,-277.499"/><path fill="none" stroke="#000000" d="M-50.000,-295.859 L170.859,-75.000"/><path fill="none" stroke="#000000" d="M178.358,-75.000 L350.000,-246.642"/><path fill="none" stroke="#000000" d="M350.000,-245.930 L120.930,-475.000"/><path fill="none" stroke="#000000" d="M120.572,-475.000 L-50.000,-304.427"/><path fill="none" stroke="#000000" d="M-50.000,-322.787 L197.787,-75.000"/><path fill="none" stroke="#000000" d="M205.286,-75.000 L350.000,-219.713"/><path fill="none" stroke="#000000" d="M350.000,-219.001 L94.001,-475.000"/><path fill="none" stroke="#000000" d="M93.644,-475.000 L-50.000,-331.356"/><path fill="none" stroke="#000000" d="M-50.000,-349.715 L224.715,-75.000"/><path fill="none" stroke="#000000" d="M232.215,-75.000 L350.000,-192.785"/><path fill="none" stroke="#000000" d="M350.000,-192.072 L67.072,-475.000"/><path fill="none" stroke="#000000" d="M66.715,-475.000 L-50.000,-358.284"/><path fill="none" stroke="#000000" d="M-50.000,-376.644 L251.644,-75.000"/><path fill="none" stroke="#000000" d="M259.144,-75.000 L350.000,-165.856"/><path fill="none" stroke="#000000" d="M350.000,-165.144 L40.144,-475.000"/><path fill="none" stroke="#000000" d="M39.787,-475.000 L-50.000,-385.213"/><path fill="none" stroke="#000000" d="M-50.000,-403.573 L278.573,-75.000"/><path fill="none" stroke="#000000" d="M286.072,-75.000 L350.000,-138.928"/><path fill="none" stroke="#000000" d="M350.000,-138.215 L13.215,-475.000"/><path fill="none" stroke="#000000" d="M12.858,-475.000 L-50.000,-412.142"/><path fill="none" stroke="#000000" d="M-50.000,-430.501 L305.501,-75.000"/><path fill="none" stroke="#000000" d="M313.001,-75.000 L350.000,-111.999"/><path fill="none" stroke="#000000" d="M350.000,-111.287 L-13.713,-475.000"/><path fill="none" stroke="#000000" d="M-14.070,-475.000 L-50.000,-439.070"/><path fill="none" stroke="#000000" d="M-50.000,-457.430 L332.430,-75.000"/><path fill="none" stroke="#000000" d="M339.929,-75.000 L350.000,-85.070"/><path fill="none" stroke="#000000" d="M350.000,-84.358 L-40.641,-475.000"/><path fill="none" stroke="#000000" d="M-40.999,-475.000 L-50.000,-465.999"/></svg>