<svg version="1.1" xmlns="http://www.w3.org/2000/svg" width="1000.0" height="1000.0" viewBox="-500.0 -500.0 1000.0 1000.0"><path fill="none" stroke="#000000" d="M66.000,338.429 L55.429,349.000"/><path fill="none" stroke="#000000" d="M64.339,349.000 L-192.000,92.661"/><path fill="none" stroke="#000000" d="M-192.000,99.078 L-183.922,91.000"/><path fill="none" stroke="#000000" d="M-175.240,91.000 L66.000,332.240"/><path fill="none" stroke="#000000" d="M66.000,320.009 L37.009,349.000"/><path fill="none" stroke="#000000" d="M45.919,349.000 L-192.000,111.081"/><path fill="none" stroke="#000000" d="M-192.000,117.499 L-165.501,91.000"/><path fill="none" stroke="#000000" d="M-156.820,91.000 L66.000,313.820"/><path fill="none" stroke="#000000" d="M66.000,301.588 L18.588,349.000"/><path fill="none" stroke="#000000" d="M27.499,349.000 L-192.000,129.502"/><path fill="none" stroke="#000000" d="M-192.000,135.919 L-147.081,91.000"/><path fill="none" stroke="#000000" d="M-138.400,91.000 L66.000,295.400"/><path fill="none" stroke="#000000" d="M66.000,283.168 L0.168,349.000"/><path fill="none" stroke="#000000" d="M9.078,349.000 L-192.000,147.922"/><path fill="none" stroke="#000000" d="M-192.000,154.340 L-128.660,91.000"/><path fill="none" stroke="#000000" d="M-119.979,91.000 L66.000,276.979"/><path fill="none" stroke="#000000" d="M66.000,264.748 L-18.253,349.000"/><path fill="none" stroke="#000000" d="M-9.343,349.000 L-192.000,166.342"/><path fill="none" stroke="#000000" d="M-192.000,172.760 L-110.240,91.000"/><path fill="none" stroke="#000000" d="M-101.559,91.000 L66.000,258.559"/><path fill="none" stroke="#000000" d="M66.000,246.327 L-36.673,349.000"/><path fill="none" stroke="#000000" d="M-27.763,349.000 L-192.000,184.763"/><path fill="none" stroke="#000000" d="M-192.000,191.180 L-91.820,91.000"/><path fill="none" stroke="#000000" d="M-83.138,91.000 L66.000,240.139"/><path fill="none" stroke="#000000" d="M66.000,227.907 L-55.093,349.000"/><path fill="none" stroke="#000000" d="M-46.183,349.000 L-192.000,203.183"/><path fill="none" stroke="#000000" d="M-192.000,209.601 L-73.399,91.000"/><path fill="none" stroke="#000000" d="M-64.718,91.000 L66.000,221.718"/><path fill="none" stroke="#000000" d="M66.000,209.486 L-73.513,349.000"/><path fill="none" stroke="#000000" d="M-64.603,349.000 L-192.000,221.604"/><path fill="none" stroke="#000000" d="M-192.000,228.021 L-54.979,91.000"/><path fill="none" stroke="#000000" d="M-46.297,91.000 L66.000,203.297"/><path fill="none" stroke="#000000" d="M66.000,191.066 L-91.934,349.000"/><path fill="none" stroke="#000000" d="M-83.024,349.000 L-192.000,240.024"/><path fill="none" stroke="#000000" d="M-192.000,246.442 L-36.558,91.000"/><path fill="none" stroke="#000000" d="M-27.877,91.000 L66.000,184.878"/><path fill="none" stroke="#000000" d="M66.000,172.645 L-110.354,349.000"/><path fill="none" stroke="#000000" d="M-101.445,349.000 L-192.000,258.445"/><path fill="none" stroke="#000000" d="M-192.000,264.862 L-18.138,91.000"/><path fill="none" stroke="#000000" d="M-9.457,91.000 L66.000,166.457"/><path fill="none" stroke="#000000" d="M66.000,154.225 L-128.775,349.000"/><path fill="none" stroke="#000000" d="M-119.865,349.000 L-192.000,276.865"/><path fill="none" stroke="#000000" d="M-192.000,283.282 L0.282,91.000"/><path fill="none" stroke="#000000" d="M8.964,91.000 L66.000,148.036"/><path fill="none" stroke="#000000" d="M66.000,135.805 L-147.195,349.000"/><path fill="none" stroke="#000000" d="M-138.285,349.000 L-192.000,295.285"/><path fill="none" stroke="#000000" d="M-192.000,301.703 L18.703,91.000"/><path fill="none" stroke="#000000" d="M27.384,91.000 L66.000,129.616"/><path fill="none" stroke="#000000" d="M66.000,117.384 L-165.616,349.000"/><path fill="none" stroke="#000000" d="M-156.706,349.000 L-192.000,313.706"/><path fill="none" stroke="#000000" d="M-192.000,320.123 L37.123,91.000"/><path fill="none" stroke="#000000" d="M45.804,91.000 L66.000,111.196"/><path fill="none" stroke="#000000" d="M66.000,98.964 L-184.036,349.000"/><path fill="none" stroke="#000000" d="M-175.126,349.000 L-192.000,332.126"/><path fill="none" stroke="#000000" d="M-192.000,338.543 L55.543,91.000"/><path fill="none" stroke="#000000" d="M64.224,91.000 L66.000,92.776"/><path fill="none" stroke="#000000" d="M91.000,95.823 L95.823,91.000"/><path fill="none" stroke="#000000" d="M111.404,91.000 L91.000,111.405"/><path fill="none" stroke="#000000" d="M91.000,126.986 L126.986,91.000"/><path fill="none" stroke="#000000" d="M142.567,91.000 L91.000,142.567"/><path fill="none" stroke="#000000" d="M91.000,158.149 L158.149,91.000"/><path fill="none" stroke="#000000" d="M173.730,91.000 L91.000,173.731"/><path fill="none" stroke="#000000" d="M91.000,189.312 L189.312,91.000"/><path fill="none" stroke="#000000" d="M204.894,91.000 L91.000,204.894"/><path fill="none" stroke="#000000" d="M91.000,220.475 L220.475,91.000"/><path fill="none" stroke="#000000" d="M236.057,91.000 L91.000,236.057"/><path fill="none" stroke="#000000" d="M91.000,251.638 L251.638,91.000"/><path fill="none" stroke="#000000" d="M267.220,91.000 L91.000,267.220"/><path fill="none" stroke="#000000" d="M91.000,282.801 L282.801,91.000"/><path fill="none" stroke="#000000" d="M298.383,91.000 L91.000,298.383"/><path fill="none" stroke="#000000" d="M91.000,313.965 L313.964,91.000"/><path fill="none" stroke="#000000" d="M329.546,91.000 L91.000,329.546"/><path fill="none" stroke="#000000" d="M91.000,345.128 L345.127,91.000"/><path fill="none" stroke="#000000" d="M349.000,102.709 L102.709,349.000"/><path fill="none" stroke="#000000" d="M118.290,349.000 L349.000,118.291"/><path fill="none" stroke="#000000" d="M349.000,133.872 L133.872,349.000"/><path fill="none" stroke="#000000" d="M149.454,349.000 L349.000,149.454"/><path fill="none" stroke="#000000" d="M349.000,165.035 L165.034,349.000"/><path fill="none" stroke="#000000" d="M180.616,349.000 L349.000,180.617"/><path fill="none" stroke="#000000" d="M349.000,196.198 L196.198,349.000"/><path fill="none" stroke="#000000" d="M211.780,349.000 L349.000,211.780"/><path fill="none" stroke="#000000" d="M349.000,227.361 L227.360,349.000"/><path fill="none" stroke="#000000" d="M242.943,349.000 L349.000,242.943"/><path fill="none" stroke="#000000" d="M349.000,258.524 L258.524,349.000"/><path fill="none" stroke="#000000" d="M274.106,349.000 L349.000,274.106"/><path fill="none" stroke="#000000" d="M349.000,289.687 L289.687,349.000"/><path fill="none" stroke="#000000" d="M305.268,349.000 L349.000,305.269"/><path fill="none" stroke="#000000" d="M349.000,320.850 L320.850,349.000"/><path fill="none" stroke="#000000" d="M336.431,349.000 L349.000,336.432"/><path fill="none" stroke="#000000" d="M332.484,66.000 L349.000,49.484"/><path fill="none" stroke="#000000" d="M349.000,28.237 L311.237,66.000"/><path fill="none" stroke="#000000" d="M289.990,66.000 L349.000,6.990"/><path fill="none" stroke="#000000" d="M349.000,-14.257 L268.744,66.000"/><path fill="none" stroke="#000000" d="M247.497,66.000 L349.000,-35.503"/><path fill="none" stroke="#000000" d="M349.000,-56.750 L226.250,66.000"/><path fill="none" stroke="#000000" d="M205.003,66.000 L349.000,-77.997"/><path fill="none" stroke="#000000" d="M349.000,-99.244 L183.756,66.000"/><path fill="none" stroke="#000000" d="M162.510,66.000 L349.000,-120.491"/><path fill="none" stroke="#000000" d="M349.000,-141.737 L141.263,66.000"/><path fill="none" stroke="#000000" d="M120.016,66.000 L349.000,-162.984"/><path fill="none" stroke="#000000" d="M349.000,-184.231 L98.769,66.000"/><path fill="none" stroke="#000000" d="M91.000,52.522 L335.522,-192.000"/><path fill="none" stroke="#000000" d="M314.275,-192.000 L91.000,31.275"/><path fill="none" stroke="#000000" d="M91.000,10.028 L293.028,-192.000"/><path fill="none" stroke="#000000" d="M271.782,-192.000 L91.000,-11.218"/><path fill="none" stroke="#000000" d="M91.000,-32.465 L250.535,-192.000"/><path fill="none" stroke="#000000" d="M229.288,-192.000 L91.000,-53.712"/><path fill="none" stroke="#000000" d="M91.000,-74.959 L208.041,-192.000"/><path fill="none" stroke="#000000" d="M186.794,-192.000 L91.000,-96.206"/><path fill="none" stroke="#000000" d="M91.000,-117.452 L165.548,-192.000"/><path fill="none" stroke="#000000" d="M144.301,-192.000 L91.000,-138.699"/><path fill="none" stroke="#000000" d="M91.000,-159.946 L123.054,-192.000"/><path fill="none" stroke="#000000" d="M101.807,-192.000 L91.000,-181.193"/><path fill="none" stroke="#000000" d="M66.000,-189.361 L63.361,-192.000"/><path fill="none" stroke="#000000" d="M66.000,-190.800 L-190.800,66.000"/><path fill="none" stroke="#000000" d="M-189.359,66.000 L-192.000,63.359"/><path fill="none" stroke="#000000" d="M-192.000,40.320 L40.320,-192.000"/><path fill="none" stroke="#000000" d="M36.481,-192.000 L66.000,-162.481"/><path fill="none" stroke="#000000" d="M66.000,-163.920 L-163.920,66.000"/><path fill="none" stroke="#000000" d="M-162.479,66.000 L-192.000,36.479"/><path fill="none" stroke="#000000" d="M-192.000,13.440 L13.440,-192.000"/><path fill="none" stroke="#000000" d="M9.600,-192.000 L66.000,-135.600"/><path fill="none" stroke="#000000" d="M66.000,-137.040 L-137.040,66.000"/><path fill="none" stroke="#000000" d="M-135.600,66.000 L-192.000,9.599"/><path fill="none" stroke="#000000" d="M-192.000,-13.440 L-13.440,-192.000"/><path fill="none" stroke="#000000" d="M-17.279,-192.000 L66.000,-108.721"/><path fill="none" stroke="#000000" d="M66.000,-110.160 L-110.160,66.000"/><path fill="none" stroke="#000000" d="M-108.719,66.000 L-192.000,-17.280"/><path fill="none" stroke="#000000" d="M-192.000,-40.320 L-40.320,-192.000"/><path fill="none" stroke="#000000" d="M-44.159,-192.000 L66.000,-81.840"/><path fill="none" stroke="#000000" d="M66.000,-83.280 L-83.280,66.000"/><path fill="none" stroke="#000000" d="M-81.839,66.000 L-192.000,-44.161"/><path fill="none" stroke="#000000" d="M-192.000,-67.200 L-67.200,-192.000"/><path fill="none" stroke="#000000" d="M-71.039,-192.000 L66.000,-54.960"/><path fill="none" stroke="#000000" d="M66.000,-56.400 L-56.400,66.000"/><path fill="none" stroke="#000000" d="M-54.959,66.000 L-192.000,-71.041"/><path fill="none" stroke="#000000" d="M-192.000,-94.080 L-94.080,-192.000"/><path fill="none" stroke="#000000" d="M-97.919,-192.000 L66.000,-28.080"/><path fill="none" stroke="#000000" d="M66.000,-29.520 L-29.520,66.000"/><path fill="none" stroke="#000000" d="M-28.079,66.000 L-192.000,-97.921"/><path fill="none" stroke="#000000" d="M-192.000,-120.960 L-120.960,-192.000"/><path fill="none" stroke="#000000" d="M-124.799,-192.000 L66.000,-1.201"/><path fill="none" stroke="#000000" d="M66.000,-2.640 L-2.640,66.000"/><path fill="none" stroke="#000000" d="M-1.200,66.000 L-192.000,-124.800"/><path fill="none" stroke="#000000" d="M-192.000,-147.840 L-147.840,-192.000"/><path fill="none" stroke="#000000" d="M-151.680,-192.000 L66.000,25.680"/><path fill="none" stroke="#000000" d="M66.000,24.240 L24.240,66.000"/><path fill="none" stroke="#000000" d="M25.681,66.000 L-192.000,-151.681"/><path fill="none" stroke="#000000" d="M-192.000,-174.720 L-174.720,-192.000"/><path fill="none" stroke="#000000" d="M-178.559,-192.000 L66.000,52.560"/><path fill="none" stroke="#000000" d="M66.000,51.120 L51.120,66.000"/><path fill="none" stroke="#000000" d="M52.560,66.000 L-192.000,-178.560"/><path fill="none" stroke="#000000" d="M-222.788,-217.000 L-217.000,-222.788"/><path fill="none" stroke="#000000" d="M-217.000,-228.386 L-463.614,-475.000"/><path fill="none" stroke="#000000" d="M-465.783,-475.000 L-475.000,-465.783"/><path fill="none" stroke="#000000" d="M-475.000,-463.614 L-228.386,-217.000"/><path fill="none" stroke="#000000" d="M-245.561,-217.000 L-217.000,-245.561"/><path fill="none" stroke="#000000" d="M-217.000,-251.159 L-440.841,-475.000"/><path fill="none" stroke="#000000" d="M-443.010,-475.000 L-475.000,-443.010"/><path fill="none" stroke="#000000" d="M-475.000,-440.842 L-251.159,-217.000"/><path fill="none" stroke="#000000" d="M-268.333,-217.000 L-217.000,-268.333"/><path fill="none" stroke="#000000" d="M-217.000,-273.931 L-418.069,-475.000"/><path fill="none" stroke="#000000" d="M-420.238,-475.000 L-475.000,-420.238"/><path fill="none" stroke="#000000" d="M-475.000,-418.069 L-273.931,-217.000"/><path fill="none" stroke="#000000" d="M-291.106,-217.000 L-217.000,-291.106"/><path fill="none" stroke="#000000" d="M-217.000,-296.704 L-395.296,-475.000"/><path fill="none" stroke="#000000" d="M-397.465,-475.000 L-475.000,-397.465"/><path fill="none" stroke="#000000" d="M-475.000,-395.297 L-296.704,-217.000"/><path fill="none" stroke="#000000" d="M-313.878,-217.000 L-217.000,-313.878"/><path fill="none" stroke="#000000" d="M-217.000,-319.477 L-372.524,-475.000"/><path fill="none" stroke="#000000" d="M-374.693,-475.000 L-475.000,-374.693"/><path fill="none" stroke="#000000" d="M-475.000,-372.524 L-319.476,-217.000"/><path fill="none" stroke="#000000" d="M-336.651,-217.000 L-217.000,-336.650"/><path fill="none" stroke="#000000" d="M-217.000,-342.249 L-349.751,-475.000"/><path fill="none" stroke="#000000" d="M-351.920,-475.000 L-475.000,-351.920"/><path fill="none" stroke="#000000" d="M-475.000,-349.751 L-342.249,-217.000"/><path fill="none" stroke="#000000" d="M-359.423,-217.000 L-217.000,-359.423"/><path fill="none" stroke="#000000" d="M-217.000,-365.021 L-326.979,-475.000"/><path fill="none" stroke="#000000" d="M-329.148,-475.000 L-475.000,-329.148"/><path fill="none" stroke="#000000" d="M-475.000,-326.979 L-365.021,-217.000"/><path fill="none" stroke="#000000" d="M-382.195,-217.000 L-217.000,-382.195"/><path fill="none" stroke="#000000" d="M-217.000,-387.794 L-304.206,-475.000"/><path fill="none" stroke="#000000" d="M-306.375,-475.000 L-475.000,-306.375"/><path fill="none" stroke="#000000" d="M-475.000,-304.207 L-387.794,-217.000"/><path fill="none" stroke="#000000" d="M-404.968,-217.000 L-217.000,-404.968"/><path fill="none" stroke="#000000" d="M-217.000,-410.566 L-281.434,-475.000"/><path fill="none" stroke="#000000" d="M-283.603,-475.000 L-475.000,-283.603"/><path fill="none" stroke="#000000" d="M-475.000,-281.434 L-410.566,-217.000"/><path fill="none" stroke="#000000" d="M-427.740,-217.000 L-217.000,-427.740"/><path fill="none" stroke="#000000" d="M-217.000,-433.339 L-258.661,-475.000"/><path fill="none" stroke="#000000" d="M-260.830,-475.000 L-475.000,-260.830"/><path fill="none" stroke="#000000" d="M-475.000,-258.662 L-433.338,-217.000"/><path fill="none" stroke="#000000" d="M-450.513,-217.000 L-217.000,-450.513"/><path fill="none" stroke="#000000" d="M-217.000,-456.111 L-235.889,-475.000"/><path fill="none" stroke="#000000" d="M-238.058,-475.000 L-475.000,-238.058"/><path fill="none" stroke="#000000" d="M-475.000,-235.889 L-456.111,-217.000"/><path fill="none" stroke="#000000" d="M-473.285,-217.000 L-217.000,-473.285"/><path fill="none" stroke="#000000" d="M-174.133,-475.000 L-192.000,-457.133"/><path fill="none" stroke="#000000" d="M-192.000,-435.830 L-152.830,-475.000"/><path fill="none" stroke="#000000" d="M-131.527,-475.000 L-192.000,-414.527"/><path fill="none" stroke="#000000" d="M-192.000,-393.224 L-110.224,-475.000"/><path fill="none" stroke="#000000" d="M-88.921,-475.000 L-192.000,-371.921"/><path fill="none" stroke="#000000" d="M-192.000,-350.618 L-67.618,-475.000"/><path fill="none" stroke="#000000" d="M-46.315,-475.000 L-192.000,-329.315"/><path fill="none" stroke="#000000" d="M-192.000,-308.012 L-25.012,-475.000"/><path fill="none" stroke="#000000" d="M-3.709,-475.000 L-192.000,-286.709"/><path fill="none" stroke="#000000" d="M-192.000,-265.406 L17.594,-475.000"/><path fill="none" stroke="#000000" d="M38.897,-475.000 L-192.000,-244.103"/><path fill="none" stroke="#000000" d="M-192.000,-222.800 L60.200,-475.000"/><path fill="none" stroke="#000000" d="M66.000,-459.497 L-176.497,-217.000"/><path fill="none" stroke="#000000" d="M-155.194,-217.000 L66.000,-438.194"/><path fill="none" stroke="#000000" d="M91.000,-467.192 L98.808,-475.000"/><path fill="none" stroke="#000000" d="M91.000,-451.625 L114.376,-475.000"/><path fill="none" stroke="#000000" d="M129.943,-475.000 L91.000,-436.057"/><path fill="none" stroke="#000000" d="M91.000,-420.490 L145.511,-475.000"/><path fill="none" stroke="#000000" d="M161.078,-475.000 L91.000,-404.922"/><path fill="none" stroke="#000000" d="M91.000,-389.355 L176.645,-475.000"/><path fill="none" stroke="#000000" d="M192.213,-475.000 L91.000,-373.787"/><path fill="none" stroke="#000000" d="M91.000,-358.220 L207.780,-475.000"/><path fill="none" stroke="#000000" d="M223.348,-475.000 L91.000,-342.652"/><path fill="none" stroke="#000000" d="M91.000,-327.085 L238.915,-475.000"/><path fill="none" stroke="#000000" d="M254.482,-475.000 L91.000,-311.518"/><path fill="none" stroke="#000000" d="M91.000,-295.950 L270.050,-475.000"/><path fill="none" stroke="#000000" d="M285.617,-475.000 L91.000,-280.383"/><path fill="none" stroke="#000000" d="M91.000,-264.816 L301.185,-475.000"/><path fill="none" stroke="#000000" d="M316.752,-475.000 L91.000,-249.248"/><path fill="none" stroke="#000000" d="M91.000,-233.680 L332.320,-475.000"/><path fill="none" stroke="#000000" d="M349.000,-227.034 L338.966,-217.000"/><path fill="none" stroke="#000000" d="M323.399,-217.000 L349.000,-242.601"/><path fill="none" stroke="#000000" d="M349.000,-258.169 L307.831,-217.000"/><path fill="none" stroke="#000000" d="M292.264,-217.000 L349.000,-273.736"/><path fill="none" stroke="#000000" d="M349.000,-289.304 L276.697,-217.000"/><path fill="none" stroke="#000000" d="M261.129,-217.000 L349.000,-304.871"/><path fill="none" stroke="#000000" d="M349.000,-320.439 L245.562,-217.000"/><path fill="none" stroke="#000000" d="M229.994,-217.000 L349.000,-336.006"/><path fill="none" stroke="#000000" d="M349.000,-351.574 L214.427,-217.000"/><path fill="none" stroke="#000000" d="M198.859,-217.000 L349.000,-367.141"/><path fill="none" stroke="#000000" d="M349.000,-382.708 L183.292,-217.000"/><path fill="none" stroke="#000000" d="M167.724,-217.000 L349.000,-398.276"/><path fill="none" stroke="#000000" d="M349.000,-413.843 L152.157,-217.000"/><path fill="none" stroke="#000000" d="M136.589,-217.000 L349.000,-429.411"/><path fill="none" stroke="#000000" d="M349.000,-444.978 L121.022,-217.000"/><path fill="none" stroke="#000000" d="M105.455,-217.000 L349.000,-460.545"/><path fill="none" stroke="#000000" d="M347.887,-475.000 L91.000,-218.113"/><path fill="none" stroke="#000000" d="M66.000,-225.164 L57.836,-217.000"/><path fill="none" stroke="#000000" d="M36.533,-217.000 L66.000,-246.467"/><path fill="none" stroke="#000000" d="M66.000,-267.770 L15.230,-217.000"/><path fill="none" stroke="#000000" d="M-6.073,-217.000 L66.000,-289.073"/><path fill="none" stroke="#000000" d="M66.000,-310.376 L-27.376,-217.000"/><path fill="none" stroke="#000000" d="M66.000,-416.891 L-133.891,-217.000"/><path fill="none" stroke="#000000" d="M-112.588,-217.000 L66.000,-395.588"/><path fill="none" stroke="#000000" d="M66.000,-374.285 L-91.285,-217.000"/><path fill="none" stroke="#000000" d="M-69.982,-217.000 L66.000,-352.982"/><path fill="none" stroke="#000000" d="M66.000,-331.679 L-48.679,-217.000"/><path fill="none" stroke="#000000" d="M-220.932,91.000 L-475.000,345.068"/><path fill="none" stroke="#000000" d="M-475.000,342.434 L-468.433,349.000"/><path fill="none" stroke="#000000" d="M-460.505,349.000 L-217.000,105.495"/><path fill="none" stroke="#000000" d="M-217.000,102.888 L-228.888,91.000"/><path fill="none" stroke="#000000" d="M-239.360,91.000 L-475.000,326.640"/><path fill="none" stroke="#000000" d="M-475.000,324.006 L-450.005,349.000"/><path fill="none" stroke="#000000" d="M-442.077,349.000 L-217.000,123.923"/><path fill="none" stroke="#000000" d="M-217.000,121.316 L-247.316,91.000"/><path fill="none" stroke="#000000" d="M-257.787,91.000 L-475.000,308.213"/><path fill="none" stroke="#000000" d="M-475.000,305.578 L-431.578,349.000"/><path fill="none" stroke="#000000" d="M-423.649,349.000 L-217.000,142.351"/><path fill="none" stroke="#000000" d="M-217.000,139.744 L-265.743,91.000"/><path fill="none" stroke="#000000" d="M-276.215,91.000 L-475.000,289.785"/><path fill="none" stroke="#000000" d="M-475.000,287.151 L-413.151,349.000"/><path fill="none" stroke="#000000" d="M-405.222,349.000 L-217.000,160.778"/><path fill="none" stroke="#000000" d="M-217.000,158.171 L-284.171,91.000"/><path fill="none" stroke="#000000" d="M-294.643,91.000 L-475.000,271.357"/><path fill="none" stroke="#000000" d="M-475.000,268.723 L-394.723,349.000"/><path fill="none" stroke="#000000" d="M-386.794,349.000 L-217.000,179.206"/><path fill="none" stroke="#000000" d="M-217.000,176.598 L-302.598,91.000"/><path fill="none" stroke="#000000" d="M-313.070,91.000 L-475.000,252.930"/><path fill="none" stroke="#000000" d="M-475.000,250.295 L-376.295,349.000"/><path fill="none" stroke="#000000" d="M-368.367,349.000 L-217.000,197.633"/><path fill="none" stroke="#000000" d="M-217.000,195.026 L-321.026,91.000"/><path fill="none" stroke="#000000" d="M-331.498,91.000 L-475.000,234.502"/><path fill="none" stroke="#000000" d="M-475.000,231.868 L-357.868,349.000"/><path fill="none" stroke="#000000" d="M-349.939,349.000 L-217.000,216.061"/><path fill="none" stroke="#000000" d="M-217.000,213.454 L-339.454,91.000"/><path fill="none" stroke="#000000" d="M-349.925,91.000 L-475.000,216.075"/><path fill="none" stroke="#000000" d="M-475.000,213.440 L-339.440,349.000"/><path fill="none" stroke="#000000" d="M-331.511,349.000 L-217.000,234.489"/><path fill="none" stroke="#000000" d="M-217.000,231.882 L-357.881,91.000"/><path fill="none" stroke="#000000" d="M-368.353,91.000 L-475.000,197.647"/><path fill="none" stroke="#000000" d="M-475.000,195.013 L-321.012,349.000"/><path fill="none" stroke="#000000" d="M-313.084,349.000 L-217.000,252.916"/><path fill="none" stroke="#000000" d="M-216.999,250.309 L-376.309,91.000"/><path fill="none" stroke="#000000" d="M-386.781,91.000 L-475.000,179.219"/><path fill="none" stroke="#000000" d="M-475.000,176.585 L-302.585,349.000"/><path fill="none" stroke="#000000" d="M-294.656,349.000 L-217.000,271.344"/><path fill="none" stroke="#000000" d="M-217.000,268.737 L-394.737,91.000"/><path fill="none" stroke="#000000" d="M-405.208,91.000 L-475.000,160.792"/><path fill="none" stroke="#000000" d="M-475.000,158.157 L-284.157,349.000"/><path fill="none" stroke="#000000" d="M-276.229,349.000 L-217.000,289.771"/><path fill="none" stroke="#000000" d="M-217.000,287.164 L-413.164,91.000"/><path fill="none" stroke="#000000" d="M-423.636,91.000 L-475.000,142.364"/><path fill="none" stroke="#000000" d="M-475.000,139.730 L-265.730,349.000"/><path fill="none" stroke="#000000" d="M-257.801,349.000 L-217.000,308.199"/><path fill="none" stroke="#000000" d="M-217.000,305.592 L-431.591,91.000"/><path fill="none" stroke="#000000" d="M-442.063,91.000 L-475.000,123.937"/><path fill="none" stroke="#000000" d="M-475.000,121.303 L-247.302,349.000"/><path fill="none" stroke="#000000" d="M-239.374,349.000 L-217.000,326.627"/><path fill="none" stroke="#000000" d="M-217.000,324.020 L-450.019,91.000"/><path fill="none" stroke="#000000" d="M-460.491,91.000 L-475.000,105.509"/><path fill="none" stroke="#000000" d="M-475.000,102.875 L-228.875,349.000"/><path fill="none" stroke="#000000" d="M-220.946,349.000 L-217.000,345.054"/><path fill="none" stroke="#000000" d="M-217.000,342.447 L-468.447,91.000"/></svg>