<svg version="1.1" xmlns="http://www.w3.org/2000/svg" width="1000.0" height="1000.0" viewBox="-500.0 -500.0 1000.0 1000.0"><path fill="none" stroke="#000000" d="M-266.644,-217.000 L-475.000,-425.356"/><path fill="none" stroke="#000000" d="M-475.000,-434.812 L-434.812,-475.000"/><path fill="none" stroke="#000000" d="M-425.356,-475.000 L-217.000,-266.644"/><path fill="none" stroke="#000000" d="M-217.000,-275.802 L-275.802,-217.000"/><path fill="none" stroke="#000000" d="M-286.501,-217.000 L-475.000,-405.499"/><path fill="none" stroke="#000000" d="M-475.000,-414.954 L-414.954,-475.000"/><path fill="none" stroke="#000000" d="M-405.498,-475.000 L-217.000,-286.502"/><path fill="none" stroke="#000000" d="M-217.000,-295.660 L-295.660,-217.000"/><path fill="none" stroke="#000000" d="M-306.359,-217.000 L-475.000,-385.641"/><path fill="none" stroke="#000000" d="M-475.000,-395.097 L-395.097,-475.000"/><path fill="none" stroke="#000000" d="M-385.641,-475.000 L-217.000,-306.359"/><path fill="none" stroke="#000000" d="M-217.000,-315.518 L-315.518,-217.000"/><path fill="none" stroke="#000000" d="M-326.217,-217.000 L-475.000,-365.783"/><path fill="none" stroke="#000000" d="M-475.000,-375.239 L-375.239,-475.000"/><path fill="none" stroke="#000000" d="M-365.783,-475.000 L-217.000,-326.217"/><path fill="none" stroke="#000000" d="M-217.000,-335.375 L-335.375,-217.000"/><path fill="none" stroke="#000000" d="M-365.932,-217.000 L-475.000,-326.068"/><path fill="none" stroke="#000000" d="M-475.000,-335.524 L-335.524,-475.000"/><path fill="none" stroke="#000000" d="M-326.068,-475.000 L-217.000,-365.932"/><path fill="none" stroke="#000000" d="M-217.000,-375.090 L-375.090,-217.000"/><path fill="none" stroke="#000000" d="M-385.789,-217.000 L-475.000,-306.210"/><path fill="none" stroke="#000000" d="M-475.000,-315.666 L-315.667,-475.000"/><path fill="none" stroke="#000000" d="M-306.210,-475.000 L-217.000,-385.790"/><path fill="none" stroke="#000000" d="M-217.000,-394.948 L-394.948,-217.000"/><path fill="none" stroke="#000000" d="M-445.362,-217.000 L-475.000,-246.638"/><path fill="none" stroke="#000000" d="M-475.000,-256.094 L-256.094,-475.000"/><path fill="none" stroke="#000000" d="M-246.637,-475.000 L-217.000,-445.363"/><path fill="none" stroke="#000000" d="M-217.000,-454.521 L-454.521,-217.000"/><path fill="none" stroke="#000000" d="M-465.220,-217.000 L-475.000,-226.780"/><path fill="none" stroke="#000000" d="M-475.000,-236.236 L-236.236,-475.000"/><path fill="none" stroke="#000000" d="M-226.780,-475.000 L-217.000,-465.220"/><path fill="none" stroke="#000000" d="M-217.000,-474.378 L-474.378,-217.000"/><path fill="none" stroke="#000000" d="M-434.663,-217.000 L-217.000,-434.663"/><path fill="none" stroke="#000000" d="M-217.000,-425.505 L-266.495,-475.000"/><path fill="none" stroke="#000000" d="M-275.951,-475.000 L-475.000,-275.951"/><path fill="none" stroke="#000000" d="M-475.000,-266.495 L-425.505,-217.000"/><path fill="none" stroke="#000000" d="M-414.806,-217.000 L-217.000,-414.806"/><path fill="none" stroke="#000000" d="M-217.000,-405.647 L-286.353,-475.000"/><path fill="none" stroke="#000000" d="M-295.809,-475.000 L-475.000,-295.809"/><path fill="none" stroke="#000000" d="M-475.000,-286.353 L-405.647,-217.000"/><path fill="none" stroke="#000000" d="M-355.233,-217.000 L-217.000,-355.233"/><path fill="none" stroke="#000000" d="M-217.000,-346.075 L-345.926,-475.000"/><path fill="none" stroke="#000000" d="M-355.382,-475.000 L-475.000,-355.382"/><path fill="none" stroke="#000000" d="M-475.000,-345.926 L-346.074,-217.000"/><path fill="none" stroke="#000000" d="M-255.945,-217.000 L-217.000,-255.945"/><path fill="none" stroke="#000000" d="M-217.000,-246.787 L-445.213,-475.000"/><path fill="none" stroke="#000000" d="M-454.670,-475.000 L-475.000,-454.670"/><path fill="none" stroke="#000000" d="M-475.000,-445.214 L-246.786,-217.000"/><path fill="none" stroke="#000000" d="M-236.087,-217.000 L-217.000,-236.087"/><path fill="none" stroke="#000000" d="M-217.000,-226.929 L-465.071,-475.000"/><path fill="none" stroke="#000000" d="M-474.527,-475.000 L-475.000,-474.527"/><path fill="none" stroke="#000000" d="M-475.000,-465.071 L-226.929,-217.000"/><path fill="none" stroke="#000000" d="M-192.000,-234.182 L48.818,-475.000"/><path fill="none" stroke="#000000" d="M45.166,-475.000 L66.000,-454.166"/><path fill="none" stroke="#000000" d="M66.000,-446.861 L-163.861,-217.000"/><path fill="none" stroke="#000000" d="M-172.705,-217.000 L-192.000,-236.295"/><path fill="none" stroke="#000000" d="M-186.522,-217.000 L66.000,-469.522"/><path fill="none" stroke="#000000" d="M66.000,-431.505 L22.505,-475.000"/><path fill="none" stroke="#000000" d="M26.157,-475.000 L-192.000,-256.843"/><path fill="none" stroke="#000000" d="M-192.000,-258.955 L-150.045,-217.000"/><path fill="none" stroke="#000000" d="M-141.201,-217.000 L66.000,-424.201"/><path fill="none" stroke="#000000" d="M66.000,-408.845 L-0.155,-475.000"/><path fill="none" stroke="#000000" d="M3.497,-475.000 L-192.000,-279.503"/><path fill="none" stroke="#000000" d="M-192.000,-281.616 L-127.385,-217.000"/><path fill="none" stroke="#000000" d="M-118.540,-217.000 L66.000,-401.540"/><path fill="none" stroke="#000000" d="M66.000,-386.184 L-22.816,-475.000"/><path fill="none" stroke="#000000" d="M-19.164,-475.000 L-192.000,-302.164"/><path fill="none" stroke="#000000" d="M-192.000,-304.276 L-104.724,-217.000"/><path fill="none" stroke="#000000" d="M-95.879,-217.000 L66.000,-378.879"/><path fill="none" stroke="#000000" d="M66.000,-363.524 L-45.476,-475.000"/><path fill="none" stroke="#000000" d="M-41.824,-475.000 L-192.000,-324.824"/><path fill="none" stroke="#000000" d="M-192.000,-326.937 L-82.063,-217.000"/><path fill="none" stroke="#000000" d="M-73.219,-217.000 L66.000,-356.219"/><path fill="none" stroke="#000000" d="M66.000,-340.863 L-68.137,-475.000"/><path fill="none" stroke="#000000" d="M-64.485,-475.000 L-192.000,-347.485"/><path fill="none" stroke="#000000" d="M-192.000,-349.597 L-59.403,-217.000"/><path fill="none" stroke="#000000" d="M-50.558,-217.000 L66.000,-333.559"/><path fill="none" stroke="#000000" d="M66.000,-318.203 L-90.797,-475.000"/><path fill="none" stroke="#000000" d="M-87.146,-475.000 L-192.000,-370.145"/><path fill="none" stroke="#000000" d="M-192.000,-372.258 L-36.742,-217.000"/><path fill="none" stroke="#000000" d="M-27.898,-217.000 L66.000,-310.898"/><path fill="none" stroke="#000000" d="M66.000,-295.542 L-113.458,-475.000"/><path fill="none" stroke="#000000" d="M-109.806,-475.000 L-192.000,-392.806"/><path fill="none" stroke="#000000" d="M-192.000,-394.919 L-14.082,-217.000"/><path fill="none" stroke="#000000" d="M-5.237,-217.000 L66.000,-288.237"/><path fill="none" stroke="#000000" d="M66.000,-272.881 L-136.118,-475.000"/><path fill="none" stroke="#000000" d="M-132.466,-475.000 L-192.000,-415.467"/><path fill="none" stroke="#000000" d="M-192.000,-417.579 L8.579,-217.000"/><path fill="none" stroke="#000000" d="M17.423,-217.000 L66.000,-265.577"/><path fill="none" stroke="#000000" d="M66.000,-250.221 L-158.779,-475.000"/><path fill="none" stroke="#000000" d="M-155.127,-475.000 L-192.000,-438.127"/><path fill="none" stroke="#000000" d="M-192.000,-440.240 L31.240,-217.000"/><path fill="none" stroke="#000000" d="M40.084,-217.000 L66.000,-242.916"/><path fill="none" stroke="#000000" d="M66.000,-227.561 L-181.439,-475.000"/><path fill="none" stroke="#000000" d="M-177.788,-475.000 L-192.000,-460.788"/><path fill="none" stroke="#000000" d="M-192.000,-462.900 L53.900,-217.000"/><path fill="none" stroke="#000000" d="M62.744,-217.000 L66.000,-220.256"/><path fill="none" stroke="#000000" d="M63.361,-192.000 L66.000,-189.361"/><path fill="none" stroke="#000000" d="M66.000,-190.800 L-190.800,66.000"/><path fill="none" stroke="#000000" d="M-192.000,-178.560 L52.560,66.000"/><path fill="none" stroke="#000000" d="M51.120,66.000 L66.000,51.120"/><path fill="none" stroke="#000000" d="M66.000,52.560 L-178.559,-192.000"/><path fill="none" stroke="#000000" d="M-174.720,-192.000 L-192.000,-174.720"/><path fill="none" stroke="#000000" d="M-192.000,-151.681 L25.681,66.000"/><path fill="none" stroke="#000000" d="M24.240,66.000 L66.000,24.240"/><path fill="none" stroke="#000000" d="M66.000,25.680 L-151.680,-192.000"/><path fill="none" stroke="#000000" d="M-147.840,-192.000 L-192.000,-147.840"/><path fill="none" stroke="#000000" d="M-192.000,-124.800 L-1.200,66.000"/><path fill="none" stroke="#000000" d="M-2.640,66.000 L66.000,-2.640"/><path fill="none" stroke="#000000" d="M66.000,-1.201 L-124.799,-192.000"/><path fill="none" stroke="#000000" d="M-120.960,-192.000 L-192.000,-120.960"/><path fill="none" stroke="#000000" d="M-192.000,-97.921 L-28.079,66.000"/><path fill="none" stroke="#000000" d="M-29.520,66.000 L66.000,-29.520"/><path fill="none" stroke="#000000" d="M66.000,-28.080 L-97.919,-192.000"/><path fill="none" stroke="#000000" d="M-94.080,-192.000 L-192.000,-94.080"/><path fill="none" stroke="#000000" d="M-192.000,-71.041 L-54.959,66.000"/><path fill="none" stroke="#000000" d="M-56.400,66.000 L66.000,-56.400"/><path fill="none" stroke="#000000" d="M66.000,-54.960 L-71.039,-192.000"/><path fill="none" stroke="#000000" d="M-67.200,-192.000 L-192.000,-67.200"/><path fill="none" stroke="#000000" d="M-192.000,-44.161 L-81.839,66.000"/><path fill="none" stroke="#000000" d="M-83.280,66.000 L66.000,-83.280"/><path fill="none" stroke="#000000" d="M66.000,-81.840 L-44.159,-192.000"/><path fill="none" stroke="#000000" d="M-40.320,-192.000 L-192.000,-40.320"/><path fill="none" stroke="#000000" d="M-192.000,-17.280 L-108.719,66.000"/><path fill="none" stroke="#000000" d="M-110.160,66.000 L66.000,-110.160"/><path fill="none" stroke="#000000" d="M66.000,-108.721 L-17.279,-192.000"/><path fill="none" stroke="#000000" d="M-13.440,-192.000 L-192.000,-13.440"/><path fill="none" stroke="#000000" d="M-192.000,9.599 L-135.600,66.000"/><path fill="none" stroke="#000000" d="M-137.040,66.000 L66.000,-137.040"/><path fill="none" stroke="#000000" d="M66.000,-135.600 L9.600,-192.000"/><path fill="none" stroke="#000000" d="M13.440,-192.000 L-192.000,13.440"/><path fill="none" stroke="#000000" d="M-192.000,36.479 L-162.479,66.000"/><path fill="none" stroke="#000000" d="M-163.920,66.000 L66.000,-163.920"/><path fill="none" stroke="#000000" d="M66.000,-162.481 L36.481,-192.000"/><path fill="none" stroke="#000000" d="M40.320,-192.000 L-192.000,40.320"/><path fill="none" stroke="#000000" d="M-192.000,63.359 L-189.359,66.000"/><path fill="none" stroke="#000000" d="M-189.997,91.000 L-192.000,93.003"/><path fill="none" stroke="#000000" d="M-192.000,109.983 L-173.017,91.000"/><path fill="none" stroke="#000000" d="M-156.038,91.000 L-192.000,126.962"/><path fill="none" stroke="#000000" d="M-192.000,143.942 L-139.058,91.000"/><path fill="none" stroke="#000000" d="M-122.079,91.000 L-192.000,160.921"/><path fill="none" stroke="#000000" d="M-192.000,177.901 L-105.099,91.000"/><path fill="none" stroke="#000000" d="M-88.120,91.000 L-192.000,194.880"/><path fill="none" stroke="#000000" d="M-192.000,211.859 L-71.140,91.000"/><path fill="none" stroke="#000000" d="M-54.161,91.000 L-192.000,228.839"/><path fill="none" stroke="#000000" d="M-192.000,245.818 L-37.182,91.000"/><path fill="none" stroke="#000000" d="M-20.202,91.000 L-192.000,262.798"/><path fill="none" stroke="#000000" d="M-192.000,279.777 L-3.223,91.000"/><path fill="none" stroke="#000000" d="M13.757,91.000 L-192.000,296.757"/><path fill="none" stroke="#000000" d="M-192.000,313.736 L30.736,91.000"/><path fill="none" stroke="#000000" d="M47.716,91.000 L-192.000,330.716"/><path fill="none" stroke="#000000" d="M-192.000,347.695 L64.695,91.000"/><path fill="none" stroke="#000000" d="M66.000,106.675 L-176.325,349.000"/><path fill="none" stroke="#000000" d="M-159.346,349.000 L66.000,123.654"/><path fill="none" stroke="#000000" d="M66.000,140.634 L-142.366,349.000"/><path fill="none" stroke="#000000" d="M-125.386,349.000 L66.000,157.613"/><path fill="none" stroke="#000000" d="M66.000,174.593 L-108.407,349.000"/><path fill="none" stroke="#000000" d="M-91.427,349.000 L66.000,191.572"/><path fill="none" stroke="#000000" d="M66.000,208.552 L-74.448,349.000"/><path fill="none" stroke="#000000" d="M-57.469,349.000 L66.000,225.531"/><path fill="none" stroke="#000000" d="M66.000,242.511 L-40.489,349.000"/><path fill="none" stroke="#000000" d="M-23.510,349.000 L66.000,259.490"/><path fill="none" stroke="#000000" d="M66.000,276.470 L-6.530,349.000"/><path fill="none" stroke="#000000" d="M10.449,349.000 L66.000,293.449"/><path fill="none" stroke="#000000" d="M66.000,310.429 L27.429,349.000"/><path fill="none" stroke="#000000" d="M44.408,349.000 L66.000,327.408"/><path fill="none" stroke="#000000" d="M66.000,344.388 L61.388,349.000"/><path fill="none" stroke="#000000" d="M-217.000,325.889 L-240.111,349.000"/><path fill="none" stroke="#000000" d="M-265.641,349.000 L-217.000,300.359"/><path fill="none" stroke="#000000" d="M-217.000,274.828 L-291.172,349.000"/><path fill="none" stroke="#000000" d="M-316.702,349.000 L-217.000,249.298"/><path fill="none" stroke="#000000" d="M-217.000,223.767 L-342.233,349.000"/><path fill="none" stroke="#000000" d="M-367.763,349.000 L-217.000,198.236"/><path fill="none" stroke="#000000" d="M-217.000,172.706 L-393.294,349.000"/><path fill="none" stroke="#000000" d="M-418.825,349.000 L-217.000,147.175"/><path fill="none" stroke="#000000" d="M-217.000,121.645 L-444.355,349.000"/><path fill="none" stroke="#000000" d="M-469.886,349.000 L-217.000,96.114"/><path fill="none" stroke="#000000" d="M-237.416,91.000 L-475.000,328.583"/><path fill="none" stroke="#000000" d="M-475.000,303.053 L-262.947,91.000"/><path fill="none" stroke="#000000" d="M-288.478,91.000 L-475.000,277.522"/><path fill="none" stroke="#000000" d="M-475.000,251.992 L-314.008,91.000"/><path fill="none" stroke="#000000" d="M-339.539,91.000 L-475.000,226.461"/><path fill="none" stroke="#000000" d="M-475.000,200.930 L-365.070,91.000"/><path fill="none" stroke="#000000" d="M-390.600,91.000 L-475.000,175.400"/><path fill="none" stroke="#000000" d="M-475.000,149.869 L-416.131,91.000"/><path fill="none" stroke="#000000" d="M-441.661,91.000 L-475.000,124.339"/><path fill="none" stroke="#000000" d="M-475.000,98.808 L-467.192,91.000"/></svg>