<svg version="1.1" xmlns="http://www.w3.org/2000/svg" width="916.0" height="916.0" viewBox="-458.0 -458.0 916.0 916.0"><path fill="none" stroke="#000000" d="M-432.364,-430.883 L-428.841,-432.938 L-424.432,-432.600"/><path fill="none" stroke="#000000" d="M-411.850,-427.495 L-416.582,-426.467 L-420.154,-424.279 L-422.653,-421.187 L-425.081,-417.971"/><path fill="none" stroke="#000000" d="M-414.616,-416.796 L-414.514,-413.013 L-412.858,-409.726 L-411.845,-406.128 L-412.204,-402.172"/><path fill="none" stroke="#000000" d="M-422.461,-404.117 L-425.860,-402.283 L-428.922,-399.983"/><path fill="none" stroke="#000000" d="M-428.735,-390.475 L-424.535,-391.475 L-420.419,-392.506"/><path fill="none" stroke="#000000" d="M-409.690,-391.157 L-404.876,-391.974 L-400.439,-393.346"/><path fill="none" stroke="#000000" d="M-391.811,-389.868 L-387.773,-390.132 L-384.170,-389.281 L-380.727,-388.128 L-377.648,-387.331 L-374.395,-386.776 L-371.183,-386.316 L-368.513,-386.145 L-366.429,-385.990 L-364.390,-385.854 L-362.098,-385.597 L-359.573,-385.379 L-357.095,-385.001 L-354.771,-384.765 L-352.661,-384.520 L-350.455,-384.188"/><path fill="none" stroke="#000000" d="M-343.553,-378.442 L-342.829,-375.994 L-342.200,-373.880"/><path fill="none" stroke="#000000" d="M-342.020,-389.480 L-344.631,-392.457 L-347.575,-394.760 L-350.666,-395.960 L-353.227,-396.868 L-355.194,-397.658 L-357.030,-398.255 L-358.898,-398.617 L-360.667,-398.940 L-362.427,-399.455 L-364.487,-400.369 L-367.247,-401.089"/><path fill="none" stroke="#000000" d="M-376.108,-401.505 L-379.410,-401.299 L-382.198,-399.989"/><path fill="none" stroke="#000000" d="M-383.092,-417.092 L-379.883,-417.824 L-376.881,-417.989 L-374.255,-418.048 L-371.588,-418.354 L-368.849,-418.879 L-366.048,-419.234 L-363.069,-418.969 L-360.053,-417.766 L-357.828,-415.775 L-356.133,-413.157 L-355.252,-410.449 L-354.225,-407.749"/><path fill="none" stroke="#000000" d="M-342.098,-409.398 L-342.349,-410.910 L-342.691,-412.474"/><path fill="none" stroke="#000000" d="M-342.734,-422.798 L-345.635,-422.511 L-348.864,-422.320"/><path fill="none" stroke="#000000" d="M-349.627,-431.041 L-353.203,-429.164 L-356.903,-428.077 L-360.486,-427.667 L-364.188,-428.257 L-367.839,-429.086 L-371.304,-429.947 L-375.439,-430.239 L-379.521,-430.854 L-383.866,-431.036 L-389.124,-430.757 L-394.096,-428.974 L-398.849,-426.907 L-400.836,-422.896 L-401.273,-418.952 L-401.160,-415.013"/><path fill="none" stroke="#000000" d="M-392.444,-402.844 L-389.179,-404.990 L-386.743,-407.550"/><path fill="none" stroke="#000000" d="M-386.252,-380.572 L-383.246,-379.704 L-380.967,-378.559"/><path fill="none" stroke="#000000" d="M-385.785,-370.977 L-383.417,-369.881 L-381.050,-369.099"/><path fill="none" stroke="#000000" d="M-371.028,-366.079 L-368.618,-365.999 L-366.134,-365.975"/><path fill="none" stroke="#000000" d="M-365.980,-376.053 L-363.561,-374.527 L-360.996,-373.518 L-358.514,-372.837 L-356.141,-371.879 L-353.986,-370.285 L-352.130,-368.235 L-350.128,-365.667 L-348.101,-362.438 L-346.775,-358.128"/><path fill="none" stroke="#000000" d="M-351.475,-345.590 L-352.666,-349.641 L-355.367,-352.556 L-358.793,-354.153 L-362.098,-355.037 L-365.343,-354.846 L-368.640,-353.927 L-372.335,-354.187 L-376.494,-354.720 L-380.234,-355.343 L-383.300,-355.886 L-386.298,-356.910 L-389.109,-358.503 L-391.813,-360.581 L-394.191,-362.975 L-397.109,-365.863 L-402.501,-367.874 L-408.102,-364.954 L-410.278,-358.998 L-411.225,-353.761 L-412.312,-349.050 L-415.296,-345.461 L-419.595,-343.535 L-424.719,-342.897"/><path fill="none" stroke="#000000" d="M-427.440,-353.858 L-423.702,-354.222 L-420.174,-355.478"/><path fill="none" stroke="#000000" d="M-418.847,-366.452 L-423.009,-369.901 L-426.822,-373.289 L-430.245,-376.751"/><path fill="none" stroke="#000000" d="M-417.351,-381.477 L-412.609,-379.601 L-407.133,-377.866 L-401.103,-376.732"/><path fill="none" stroke="#000000" d="M-397.393,-353.419 L-400.800,-350.524 L-402.244,-346.429 L-404.157,-342.432"/><path fill="none" stroke="#000000" d="M-392.423,-346.473 L-389.590,-345.866 L-387.071,-344.639 L-384.485,-342.524"/><path fill="none" stroke="#000000" d="M-357.574,-312.049 L-361.221,-311.774 L-364.895,-312.540 L-368.530,-313.317 L-372.030,-314.218 L-376.269,-314.452 L-380.365,-315.048 L-384.954,-315.234 L-390.378,-315.010 L-395.724,-313.948 L-401.518,-314.276 L-407.120,-313.108 L-412.779,-312.591 L-417.415,-313.628"/><path fill="none" stroke="#000000" d="M-428.719,-310.669 L-430.979,-307.775 L-432.783,-304.064"/><path fill="none" stroke="#000000" d="M-424.842,-294.746 L-422.100,-297.464 L-420.571,-301.360"/><path fill="none" stroke="#000000" d="M-408.861,-303.396 L-408.786,-299.373 L-407.761,-296.000 L-406.900,-293.029 L-405.557,-290.096 L-406.208,-286.150"/><path fill="none" stroke="#000000" d="M-402.925,-276.001 L-398.572,-277.596 L-394.420,-279.169 L-390.776,-280.215"/><path fill="none" stroke="#000000" d="M-378.502,-277.780 L-375.687,-277.333 L-373.215,-277.130 L-370.727,-276.600 L-368.431,-275.790 L-366.409,-274.718 L-364.466,-273.829 L-362.481,-273.309 L-360.368,-272.961 L-358.145,-272.544 L-355.836,-272.063 L-353.431,-271.638 L-351.143,-270.921 L-348.756,-270.115 L-346.021,-269.023 L-343.115,-267.179"/><path fill="none" stroke="#000000" d="M-360.365,-260.686 L-357.727,-260.371 L-355.233,-259.685 L-353.242,-258.401 L-351.645,-256.924 L-350.220,-255.167 L-348.813,-252.856 L-347.333,-250.035 L-346.170,-246.452"/><path fill="none" stroke="#000000" d="M-354.306,-238.775 L-351.263,-236.572 L-349.824,-232.379 L-348.955,-228.107"/><path fill="none" stroke="#000000" d="M-361.466,-227.963 L-363.417,-231.382 L-366.488,-233.241 L-369.907,-234.370 L-373.641,-235.777 L-377.450,-236.990 L-380.935,-238.156 L-383.814,-238.959 L-386.881,-240.132 L-389.853,-241.704 L-392.839,-243.564 L-395.635,-245.987 L-400.290,-248.104 L-405.916,-246.442"/><path fill="none" stroke="#000000" d="M-397.534,-264.574 L-393.502,-261.995 L-389.133,-260.616 L-385.994,-259.215 L-383.722,-258.266 L-381.916,-257.084 L-380.272,-255.698 L-378.452,-254.280 L-376.102,-252.774 L-373.283,-251.888 L-370.863,-251.360 L-368.704,-251.007 L-366.437,-250.705 L-364.071,-250.394 L-361.500,-249.607 L-358.938,-248.742"/><path fill="none" stroke="#000000" d="M-371.743,-264.158 L-374.252,-265.836 L-376.969,-267.378"/><path fill="none" stroke="#000000" d="M-369.337,-287.526 L-366.414,-286.800 L-363.841,-285.630 L-361.863,-284.498 L-360.254,-283.819 L-358.731,-283.328 L-357.070,-282.819"/><path fill="none" stroke="#000000" d="M-348.603,-288.604 L-346.499,-287.126 L-343.921,-285.783"/><path fill="none" stroke="#000000" d="M-342.611,-306.077 L-345.530,-305.993 L-348.701,-305.972"/><path fill="none" stroke="#000000" d="M-367.297,-302.890 L-370.060,-302.437 L-372.795,-301.926 L-375.439,-301.825 L-378.198,-301.725"/><path fill="none" stroke="#000000" d="M-395.979,-303.316 L-396.982,-299.352 L-396.780,-295.395"/><path fill="none" stroke="#000000" d="M-416.698,-279.009 L-420.398,-276.278 L-424.536,-275.288 L-428.762,-274.268"/><path fill="none" stroke="#000000" d="M-414.763,-253.543 L-419.893,-255.717 L-423.716,-259.067"/><path fill="none" stroke="#000000" d="M-432.077,-243.105 L-430.183,-238.735 L-426.346,-237.076"/><path fill="none" stroke="#000000" d="M-417.432,-231.250 L-413.983,-234.729 L-413.204,-239.470"/><path fill="none" stroke="#000000" d="M-398.225,-227.842 L-395.736,-229.942 L-392.679,-230.483 L-389.832,-229.943 L-387.299,-228.762 L-384.718,-226.755"/><path fill="none" stroke="#000000" d="M-313.414,-232.683 L-309.030,-229.876 L-305.308,-226.379"/><path fill="none" stroke="#000000" d="M-296.314,-230.209 L-291.957,-227.821 L-286.564,-226.369"/><path fill="none" stroke="#000000" d="M-286.537,-248.271 L-282.063,-250.164 L-277.414,-251.756 L-272.778,-253.411 L-268.756,-255.581 L-265.523,-258.659 L-262.614,-261.970 L-260.572,-265.514 L-259.143,-269.069 L-258.001,-272.674 L-257.504,-276.515 L-257.838,-280.463 L-257.985,-284.418 L-257.411,-288.422 L-255.006,-291.948 L-251.494,-294.891 L-247.395,-297.560 L-243.415,-299.913"/><path fill="none" stroke="#000000" d="M-239.474,-288.328 L-236.291,-289.467 L-233.099,-290.013 L-230.051,-290.212 L-227.326,-290.356"/><path fill="none" stroke="#000000" d="M-226.119,-281.233 L-229.492,-280.743 L-232.870,-279.919"/><path fill="none" stroke="#000000" d="M-243.578,-278.864 L-245.857,-275.625 L-247.940,-272.417"/><path fill="none" stroke="#000000" d="M-235.214,-268.210 L-232.148,-269.423 L-228.804,-269.474"/><path fill="none" stroke="#000000" d="M-237.939,-259.792 L-241.187,-259.190 L-244.537,-258.421 L-247.947,-257.650"/><path fill="none" stroke="#000000" d="M-245.880,-246.582 L-242.186,-246.092 L-238.582,-245.098 L-235.112,-244.170 L-231.902,-243.443 L-228.695,-242.841"/><path fill="none" stroke="#000000" d="M-232.631,-226.413 L-233.878,-228.224 L-235.597,-229.754 L-237.713,-230.853 L-240.196,-231.730 L-243.467,-232.754 L-247.577,-233.615"/><path fill="none" stroke="#000000" d="M-256.772,-236.922 L-260.955,-238.442 L-265.070,-240.097 L-269.611,-241.331"/><path fill="none" stroke="#000000" d="M-263.667,-228.578 L-269.289,-230.628 L-274.978,-231.989 L-280.204,-233.876 L-284.837,-236.209 L-288.726,-238.672 L-293.038,-240.074 L-297.632,-239.836 L-302.197,-239.537 L-306.841,-239.819"/><path fill="none" stroke="#000000" d="M-316.285,-252.690 L-312.596,-253.061 L-309.008,-253.852 L-305.495,-255.155 L-302.088,-256.762"/><path fill="none" stroke="#000000" d="M-292.819,-258.728 L-290.477,-262.091 L-289.102,-265.949 L-288.542,-269.947 L-288.517,-273.598 L-288.317,-277.284 L-287.787,-280.991"/><path fill="none" stroke="#000000" d="M-296.041,-283.612 L-298.374,-280.458 L-301.264,-277.823 L-304.144,-275.188 L-306.950,-272.618 L-309.379,-269.910 L-311.136,-266.906 L-312.607,-263.960"/><path fill="none" stroke="#000000" d="M-313.878,-278.080 L-312.204,-281.987 L-310.351,-285.822 L-308.400,-289.583 L-306.161,-292.644"/><path fill="none" stroke="#000000" d="M-298.993,-298.312 L-296.472,-301.001 L-293.471,-303.295"/><path fill="none" stroke="#000000" d="M-303.153,-308.633 L-306.819,-306.617 L-309.889,-304.309 L-312.519,-301.565 L-314.600,-298.304 L-316.170,-294.542"/><path fill="none" stroke="#000000" d="M-316.929,-311.832 L-313.475,-314.336 L-309.732,-316.069"/><path fill="none" stroke="#000000" d="M-286.793,-312.836 L-282.798,-309.784 L-277.625,-308.518"/><path fill="none" stroke="#000000" d="M-282.617,-300.099 L-286.128,-297.071 L-288.463,-293.559 L-289.780,-289.997"/><path fill="none" stroke="#000000" d="M-267.636,-289.706 L-267.053,-285.900 L-266.328,-282.195"/><path fill="none" stroke="#000000" d="M-273.381,-273.590 L-274.495,-276.628 L-275.444,-279.597 L-276.392,-282.847 L-276.758,-286.761 L-276.665,-290.771 L-275.936,-294.953 L-273.007,-298.894 L-268.927,-302.279 L-264.393,-304.807 L-258.994,-305.651 L-253.922,-307.226 L-248.612,-308.179 L-243.281,-308.655 L-238.384,-308.579 L-234.127,-308.396 L-230.117,-307.870 L-226.061,-307.439"/><path fill="none" stroke="#000000" d="M-227.901,-344.491 L-229.997,-344.067 L-231.864,-344.015 L-233.773,-344.182 L-235.559,-344.437 L-237.324,-344.599 L-239.101,-343.819 L-240.887,-342.628"/><path fill="none" stroke="#000000" d="M-244.573,-349.294 L-243.289,-351.914 L-242.571,-355.380"/><path fill="none" stroke="#000000" d="M-234.497,-354.795 L-231.169,-355.135 L-227.332,-355.042"/><path fill="none" stroke="#000000" d="M-233.416,-364.740 L-230.608,-367.246 L-228.109,-368.311"/><path fill="none" stroke="#000000" d="M-228.931,-383.547 L-231.094,-381.403 L-235.682,-380.113 L-237.102,-376.404 L-237.239,-373.764 L-237.317,-370.011 L-240.610,-367.041 L-245.540,-362.764 L-249.612,-358.916 L-251.453,-355.226 L-252.158,-352.098 L-255.631,-350.728 L-260.712,-349.979 L-267.185,-348.202 L-273.409,-348.271 L-278.066,-350.409 L-282.071,-350.563 L-284.914,-350.957 L-287.482,-351.555 L-289.702,-351.965 L-292.178,-351.816 L-295.741,-350.490"/><path fill="none" stroke="#000000" d="M-303.244,-343.874 L-309.768,-346.915 L-316.976,-345.487"/><path fill="none" stroke="#000000" d="M-311.308,-372.282 L-308.423,-374.291 L-307.987,-377.293 L-307.267,-380.240 L-306.819,-384.176 L-305.179,-388.155 L-303.449,-392.958"/><path fill="none" stroke="#000000" d="M-295.807,-384.934 L-293.139,-384.015 L-290.525,-381.721 L-288.337,-378.172 L-284.734,-375.569 L-280.755,-372.749 L-276.947,-371.019 L-274.308,-367.595"/><path fill="none" stroke="#000000" d="M-277.479,-381.417 L-278.889,-385.184 L-282.022,-386.858"/><path fill="none" stroke="#000000" d="M-258.716,-416.161 L-256.920,-412.286 L-255.312,-408.359 L-252.559,-405.006 L-248.657,-404.478"/><path fill="none" stroke="#000000" d="M-247.486,-415.202 L-248.597,-418.560 L-249.579,-421.776 L-251.552,-424.572 L-254.487,-426.661 L-257.837,-427.408 L-260.497,-428.897"/><path fill="none" stroke="#000000" d="M-269.140,-425.402 L-267.603,-423.656 L-267.307,-422.101"/><path fill="none" stroke="#000000" d="M-281.396,-419.793 L-278.846,-418.581 L-277.015,-417.426 L-275.629,-416.841 L-273.928,-416.151 L-271.850,-415.328 L-268.800,-414.412 L-265.819,-411.882 L-263.163,-408.819 L-261.093,-405.202 L-260.409,-401.944 L-259.144,-399.316 L-256.805,-397.907"/><path fill="none" stroke="#000000" d="M-257.004,-387.987 L-259.924,-390.137 L-262.659,-392.567"/><path fill="none" stroke="#000000" d="M-269.433,-400.084 L-270.705,-401.870 L-272.038,-403.312 L-274.178,-404.550"/><path fill="none" stroke="#000000" d="M-283.291,-406.437 L-286.195,-407.641 L-289.675,-407.989 L-293.080,-408.236 L-297.754,-408.231"/><path fill="none" stroke="#000000" d="M-297.093,-415.699 L-293.443,-416.517 L-290.408,-417.912"/><path fill="none" stroke="#000000" d="M-293.082,-423.218 L-290.411,-425.874 L-287.332,-426.949 L-284.547,-427.224 L-281.782,-427.604 L-278.935,-427.570 L-276.110,-426.039"/><path fill="none" stroke="#000000" d="M-247.977,-431.695 L-244.525,-431.997 L-240.803,-432.288"/><path fill="none" stroke="#000000" d="M-234.201,-426.949 L-231.428,-423.247 L-226.834,-422.524"/><path fill="none" stroke="#000000" d="M-228.986,-411.484 L-232.829,-414.310 L-236.273,-416.287 L-238.245,-419.485"/><path fill="none" stroke="#000000" d="M-241.288,-410.222 L-237.805,-407.360 L-235.463,-403.619"/><path fill="none" stroke="#000000" d="M-226.726,-390.757 L-231.318,-393.988 L-236.490,-394.641 L-240.424,-398.052 L-245.481,-398.461 L-249.365,-395.460 L-250.406,-391.087 L-250.282,-386.619 L-249.404,-382.513 L-248.624,-378.633 L-249.226,-375.120 L-251.319,-372.271 L-254.266,-369.509 L-256.084,-365.829 L-259.288,-363.100 L-263.051,-363.962 L-265.406,-366.075"/><path fill="none" stroke="#000000" d="M-263.637,-356.283 L-267.826,-357.971 L-270.934,-360.886"/><path fill="none" stroke="#000000" d="M-288.289,-344.418 L-291.031,-343.231 L-294.148,-343.711"/><path fill="none" stroke="#000000" d="M-289.922,-358.760 L-291.987,-360.685 L-295.040,-360.991 L-298.125,-359.867 L-301.239,-356.833 L-305.520,-352.762"/><path fill="none" stroke="#000000" d="M-311.180,-357.767 L-308.157,-361.670 L-304.228,-364.345 L-300.751,-367.067 L-297.455,-368.473 L-293.572,-368.578 L-289.870,-367.808 L-286.511,-366.734 L-284.083,-364.698 L-282.205,-362.386 L-281.034,-359.811 L-278.304,-357.018"/><path fill="none" stroke="#000000" d="M-262.989,-374.040 L-265.948,-375.728 L-267.054,-379.255 L-268.305,-383.283 L-268.920,-388.218 L-270.353,-392.639 L-273.307,-394.483 L-275.919,-395.542 L-278.686,-396.203 L-281.609,-395.492 L-284.771,-394.162 L-287.843,-392.522 L-290.937,-392.688 L-293.627,-394.527 L-295.862,-397.072 L-299.204,-400.188"/><path fill="none" stroke="#000000" d="M-306.681,-409.939 L-311.339,-410.042 L-315.830,-409.281"/><path fill="none" stroke="#000000" d="M-316.128,-417.945 L-312.865,-420.002 L-312.060,-423.656"/><path fill="none" stroke="#000000" d="M-306.369,-430.145 L-305.831,-426.187 L-305.043,-423.207 L-304.118,-419.921 L-306.658,-416.225"/></svg>